<?xml version="1.0" standalone="no"?><!DOCTYPE svg PUBLIC "-//W3C//DTD SVG 1.1//EN" "http://www.w3.org/Graphics/SVG/1.1/DTD/svg11.dtd"><svg t="1584907882406" class="icon" viewBox="0 0 1024 1024" version="1.1" xmlns="http://www.w3.org/2000/svg" p-id="7564" xmlns:xlink="http://www.w3.org/1999/xlink" width="200" height="200"><defs><style type="text/css"></style></defs><path d="M914.4 674.9H394.7c-25.2 0-45.6-22-45.6-48.9s20.4-48.9 45.6-48.9h519.7c25.2 0 45.6 22 45.6 48.9s-20.4 48.9-45.6 48.9z m0-228.1H394.7c-25.2 0-45.6-22-45.6-48.9s20.4-48.9 45.6-48.9h519.7c25.2 0 45.6 22 45.6 48.9s-20.4 48.9-45.6 48.9z m-3.3-219.9H115.3c-26.9 0-50.5-20.4-51.3-47.2-0.8-27.7 21.2-50.5 48.9-50.5h795.8c26.9 0 50.5 20.4 51.3 47.2 0.8 27.7-21.2 50.5-48.9 50.5zM291.3 674.1V349.9L64 512l227.3 162.1c0 0.8 0 0.8 0 0z m-178.4 123h795.8c26.9 0 50.5 20.4 51.3 47.2 0.8 27.7-21.2 50.5-48.9 50.5H115.3c-26.9 0-50.5-20.4-51.3-47.2-0.8-27.7 21.2-50.5 48.9-50.5z" p-id="7565"></path></svg>