<svg id="Layer_1" data-name="Layer 1" xmlns="http://www.w3.org/2000/svg" xmlns:xlink="http://www.w3.org/1999/xlink" viewBox="0 0 555.97 456.08"><defs><linearGradient id="linear-gradient" x1="120.15" y1="271.06" x2="144.24" y2="271.06" gradientUnits="userSpaceOnUse"><stop offset="0" stop-color="#ecc4d7"/><stop offset="0.42" stop-color="#efd4d1"/><stop offset="1" stop-color="#f2eac9"/></linearGradient><linearGradient id="linear-gradient-2" x1="135.11" y1="186.01" x2="139.13" y2="192.35" gradientUnits="userSpaceOnUse"><stop offset="0" stop-opacity="0"/><stop offset="0.97"/></linearGradient><linearGradient id="linear-gradient-3" x1="126.45" y1="234.44" x2="127.26" y2="284.33" xlink:href="#linear-gradient-2"/><linearGradient id="linear-gradient-4" x1="121.47" y1="252.01" x2="121.93" y2="280.17" xlink:href="#linear-gradient-2"/><linearGradient id="linear-gradient-5" x1="478.24" y1="246.33" x2="336.36" y2="251.06" xlink:href="#linear-gradient-2"/><linearGradient id="linear-gradient-6" x1="492.1" y1="234.83" x2="486.67" y2="331.18" xlink:href="#linear-gradient-2"/><linearGradient id="linear-gradient-7" x1="510.78" y1="237.4" x2="425.83" y2="333.38" xlink:href="#linear-gradient-2"/><linearGradient id="linear-gradient-8" x1="530.02" y1="272.43" x2="482.46" y2="274.18" xlink:href="#linear-gradient-2"/><linearGradient id="linear-gradient-9" x1="452.63" y1="280.2" x2="518.49" y2="280.2" xlink:href="#linear-gradient-2"/><linearGradient id="linear-gradient-10" x1="274.89" y1="244.16" x2="227.48" y2="245.91" xlink:href="#linear-gradient-2"/><linearGradient id="linear-gradient-11" x1="363.35" y1="282.18" x2="323.35" y2="204.08" xlink:href="#linear-gradient-2"/><linearGradient id="linear-gradient-12" x1="358.16" y1="251.58" x2="356.91" y2="267.16" xlink:href="#linear-gradient-2"/><linearGradient id="linear-gradient-13" x1="355.33" y1="161.97" x2="355.33" y2="214.36" xlink:href="#linear-gradient-2"/><linearGradient id="linear-gradient-14" x1="355.33" y1="162.49" x2="355.33" y2="222.17" xlink:href="#linear-gradient-2"/><linearGradient id="linear-gradient-15" x1="302.02" y1="182.14" x2="296.65" y2="214.13" xlink:href="#linear-gradient-2"/><linearGradient id="linear-gradient-16" x1="261.79" y1="244.52" x2="290.27" y2="244.2" xlink:href="#linear-gradient-2"/><linearGradient id="linear-gradient-17" x1="430.35" y1="277.49" x2="431.06" y2="340.63" xlink:href="#linear-gradient-2"/><linearGradient id="linear-gradient-18" x1="135.24" y1="343.37" x2="34.35" y2="358.4" xlink:href="#linear-gradient-2"/><linearGradient id="linear-gradient-19" x1="123.96" y1="293.66" x2="135.74" y2="347.27" xlink:href="#linear-gradient-2"/><linearGradient id="linear-gradient-20" x1="120.77" y1="282.77" x2="124.09" y2="317.01" xlink:href="#linear-gradient-2"/><linearGradient id="linear-gradient-21" x1="120.77" y1="289.48" x2="124.09" y2="323.72" xlink:href="#linear-gradient-2"/><linearGradient id="linear-gradient-22" x1="304.31" y1="257.73" x2="299.07" y2="322.99" xlink:href="#linear-gradient-2"/><linearGradient id="linear-gradient-23" x1="304.19" y1="260.39" x2="299.28" y2="321.49" xlink:href="#linear-gradient-2"/><linearGradient id="linear-gradient-24" x1="431.09" y1="188.82" x2="428.89" y2="266.95" xlink:href="#linear-gradient-2"/><linearGradient id="linear-gradient-25" x1="431.15" y1="192.29" x2="428.69" y2="279.71" xlink:href="#linear-gradient-2"/><linearGradient id="linear-gradient-26" x1="120.05" y1="311.35" x2="133.14" y2="311.35" xlink:href="#linear-gradient"/><linearGradient id="linear-gradient-27" x1="296.3" y1="258.21" x2="294.08" y2="285.91" xlink:href="#linear-gradient-2"/><linearGradient id="linear-gradient-28" x1="345.79" y1="272.18" x2="298.23" y2="273.93" xlink:href="#linear-gradient-2"/><linearGradient id="linear-gradient-29" x1="299.23" y1="183.88" x2="290.94" y2="242.71" xlink:href="#linear-gradient-2"/><linearGradient id="linear-gradient-30" x1="478.24" y1="132.01" x2="336.36" y2="136.74" xlink:href="#linear-gradient-2"/><linearGradient id="linear-gradient-31" x1="492.1" y1="120.51" x2="486.67" y2="216.86" xlink:href="#linear-gradient-2"/><linearGradient id="linear-gradient-32" x1="510.78" y1="123.07" x2="425.83" y2="219.06" xlink:href="#linear-gradient-2"/><linearGradient id="linear-gradient-33" x1="530.02" y1="158.11" x2="482.46" y2="159.86" xlink:href="#linear-gradient-2"/><linearGradient id="linear-gradient-34" x1="274.89" y1="129.84" x2="227.48" y2="131.59" xlink:href="#linear-gradient-2"/><linearGradient id="linear-gradient-35" x1="355.33" y1="47.65" x2="355.33" y2="100.04" xlink:href="#linear-gradient-2"/><linearGradient id="linear-gradient-36" x1="355.33" y1="48.17" x2="355.33" y2="107.84" xlink:href="#linear-gradient-2"/><linearGradient id="linear-gradient-37" x1="302.02" y1="67.82" x2="296.65" y2="99.81" xlink:href="#linear-gradient-2"/><linearGradient id="linear-gradient-38" x1="261.79" y1="130.2" x2="290.27" y2="129.88" xlink:href="#linear-gradient-2"/><linearGradient id="linear-gradient-39" x1="431.09" y1="74.49" x2="428.89" y2="152.63" xlink:href="#linear-gradient-2"/><linearGradient id="linear-gradient-40" x1="431.15" y1="77.97" x2="428.69" y2="165.39" xlink:href="#linear-gradient-2"/><linearGradient id="linear-gradient-41" x1="345.79" y1="157.86" x2="298.23" y2="159.61" xlink:href="#linear-gradient-2"/><linearGradient id="linear-gradient-42" x1="299.23" y1="69.56" x2="290.94" y2="128.39" xlink:href="#linear-gradient-2"/><linearGradient id="linear-gradient-43" x1="173.3" y1="280.27" x2="184.38" y2="280.27" xlink:href="#linear-gradient"/><linearGradient id="linear-gradient-44" x1="165.32" y1="301.51" x2="169.59" y2="387.82" gradientUnits="userSpaceOnUse"><stop offset="0" stop-opacity="0"/><stop offset="0.49" stop-opacity="0.49"/><stop offset="0.97"/></linearGradient></defs><title>46. Under Contructions</title><path d="M120.78,223.85C82.55,231.31.21,249.55,28.17,340.52c3.9,12.71,29.08,56.14,31.87,69.14,3.11,14.52-3.35,29.83-.19,44.34,5.68,26.09,37.25,35.79,63.64,39.84,30.53,4.68,62,8.21,92.05,1.22,16.57-3.85,32.28-10.8,48.77-15C332,463,405.71,494,472.23,472.93c19.69-6.22,39.37-18.64,45.58-38.34,4-12.83,1.73-26.67,1.66-40.13-.2-34.19,4.23-79.64,15.08-112.06s60.83-160-44-180.9C338.25,71.13,386.4,172,120.78,223.85Z" transform="translate(0 -65.71)" fill="#68c5fd" opacity="0.25"/><path d="M118.88,454.16c-24.49,5.29-50.38,12.28-67,31-3.43,3.85-6.51,8.47-6.59,13.62-.21,12.26,14.94,18,27.1,19.65,37.54,5,75.6,3.43,113.44,1.88,23.94-1,47.94-2,71.63-5.51C304,507.79,350.16,490.9,397,496c15.42,1.68,30.51,5.74,45.94,7.29a143.24,143.24,0,0,0,72.58-11.8c8-3.6,16.45-8.88,18.55-17.42s-3.06-17.26-10.16-22.21-15.84-6.84-24.31-8.63c-20.4-4.29-38-11.91-58.89-13.23q-39.64-2.49-79.42-2.3A1177.37,1177.37,0,0,0,204.36,439Q161.35,445,118.88,454.16Z" transform="translate(0 -65.71)" fill="#68c5fd" opacity="0.25"/><g opacity="0.24"><path d="M97.88,511.53c14.67,1.34,29.4,1.91,44.12,2,12.74.06,25.89-.33,37.48-5.62,6.35-2.9,12.08-7.22,18.75-9.28,6.28-1.94,13-1.77,19.49-2.64s13.35-3.15,17.16-8.5L210,479.22a56.47,56.47,0,0,0-9.7-2.6,53.36,53.36,0,0,0-12.69.13,378.39,378.39,0,0,0-47.45,7.64c-8.76,2-13.31,7.2-20.91,10.54-6.12,2.69-9.79.57-16,.4C88.8,494.94,78.49,509.76,97.88,511.53Z" transform="translate(0 -65.71)" fill="#3f3d56"/><path d="M234.55,446.46c-3.66.06-8.58,1.2-8.53,4.86,13.2,4.09,27.41-.43,41.23.06,18.58.66,35.5,10.31,51.56,19.7a17.51,17.51,0,0,0-15.48,8.56c36.19,3.82,72.44-5.41,108.82-6,38.08-.58,76.23,8.36,114,3.67-.66-3.07-4.36-4.24-7.46-4.71-15.89-2.4-32.08-1.31-48.11-2.34s-32.63-4.51-45.13-14.6a159.47,159.47,0,0,0,37.32-14c-7.5-3.53-16.25-2.45-24.48-1.46A616.6,616.6,0,0,1,274,438c-1.88,3.75,3.85,6.54,8,6.87l91.2,7.24c10.45.83,21.75,2,29.43,9.15C362.3,469,306.88,461,268.89,445.32c-6.24-2.58,3.9-9.85-2.83-9.14C258.25,437,243.94,446.29,234.55,446.46Z" transform="translate(0 -65.71)" fill="#3f3d56"/></g><path d="M140.58,254.84a8.11,8.11,0,0,1,1.7,5.81c-.1.91-.34,1.81-.39,2.72a3.34,3.34,0,0,0,.81,2.54c.54.52,1.39.85,1.52,1.58.19,1-1.05,1.59-1.78,2.31a6.41,6.41,0,0,0-1.3,2.76,20.69,20.69,0,0,1-1.84,4.24,6.59,6.59,0,0,1-3.24,3.18c-1,.36-2.22.27-3.17.82-2.24,1.29-1.71,5-3.79,6.59a4.35,4.35,0,0,1-2,.72,8.74,8.74,0,0,1-4.84-.65,3.72,3.72,0,0,1-1.7-1.32,4.46,4.46,0,0,1-.41-2.61c.17-3,.58-6.06.48-9.09-.05-1.62-.24-3.24-.22-4.86a16.44,16.44,0,0,1,6-12.55A14.06,14.06,0,0,1,140,254.87l-.89-1" transform="translate(0 -65.71)" fill="url(#linear-gradient)"/><path d="M124.56,263.09a2.74,2.74,0,0,0-2,3.18,3.25,3.25,0,0,0,3,2.42l-3.19,6.13c-.27.52-.72,1.14-1.29,1s-.71-.92-.82-1.53c-.34-1.93-1.86-3.41-2.72-5.17-1.26-2.57-1-5.59-.78-8.44.23-2.54.49-5.2,1.87-7.35a12.77,12.77,0,0,1,2.95-3,13.91,13.91,0,0,1,6.67-3.11,16.07,16.07,0,0,1,6.14.76,13.68,13.68,0,0,1,5.46,2.53,5.31,5.31,0,0,1,1.84,5.41c-3,.4-8.83,0-11.18,2.19-2,1.89-.64,6-3.23,7.29C127.18,263.67,126,263.31,124.56,263.09Z" transform="translate(0 -65.71)" fill="#25233a"/><path d="M150.17,252.36c-.92-.55-5-2.26-5.93-2.81-.18-3.24-3.67-7.47-8.46-9.26C132.2,239,124.84,239,119,243.38c-6.63,5-5.7,13.38-5.77,15.57a2.79,2.79,0,0,0,3.9,2.63,49.16,49.16,0,0,1,5.44-2.08l8-2C136.22,256,144.5,253.82,150.17,252.36Z" transform="translate(0 -65.71)" fill="#68c5fd"/><polygon points="148.95 186.12 125.3 192.24 133.1 188.09 135.24 186.96 138.86 185.7 142.93 184.3 144.24 183.84 148.95 186.12" fill="url(#linear-gradient-2)"/><polygon points="125.3 193.03 118.23 206.03 116.61 202.07 118.84 198.16 116.26 196.3 119 195.06 120.78 196.48 121.51 194.13 125.3 193.03" fill="#65657f"/><path d="M114.22,261.14s1.12.29,4-1a46.06,46.06,0,0,1,7.12-2.22l9.94-5.28s-12.64-6.36-20.1.85C115.14,253.51,112.24,257.5,114.22,261.14Z" transform="translate(0 -65.71)" fill="#68c5fd"/><path d="M114.07,250.66s5.41-9.29,14.08-9.26a17.24,17.24,0,0,1,11.13,4.19S124.38,236.22,114.07,250.66Z" transform="translate(0 -65.71)" fill="url(#linear-gradient-3)"/><path d="M113.87,260.35s.1,1.43,2.49.5,9.59-3,9.59-3l3.33-2S115.19,261.26,113.87,260.35Z" transform="translate(0 -65.71)" fill="url(#linear-gradient-4)"/><path d="M117.71,484.34A260.13,260.13,0,0,0,146.5,383.66c.24-3.2.37-6.64-1.32-9.37-3.23-5.24-10.83-4.93-16.91-4-2.76.44-5.88,1.13-7.26,3.55-1,1.79-11.53,8.27-10.57,10.09,7,13.21,9.84,30.15,6.34,47.76-3.44,17.33-9.62,30.14-12.1,47.44C106.09,479.25,117.17,485.36,117.71,484.34Z" transform="translate(0 -65.71)" fill="#25233a"/><rect x="441.03" y="119.74" width="17.73" height="254.81" fill="#68c5fd"/><rect x="448.56" y="119.74" width="10.2" height="254.81" fill="url(#linear-gradient-5)"/><path d="M458.76,239.69c0-.56,63.72,21.77,63.72,21.77L524,283.35l-66.65-24.12-.17-19.55Z" transform="translate(0 -65.71)" fill="#68c5fd"/><path d="M457.17,241.57c0-.56,65.31,22.95,65.31,22.95L524,282.43l-66.65-24.12Z" transform="translate(0 -65.71)" fill="url(#linear-gradient-6)"/><path d="M453.77,244.05c0-.56,63.71,21.77,63.71,21.77L519,286.31l-66.65-24.12L452.15,244Z" transform="translate(0 -65.71)" fill="#68c5fd"/><path d="M452.18,245.45c0-.56,65.3,22.95,65.3,22.95L519,286.31l-66.65-24.12Z" transform="translate(0 -65.71)" fill="url(#linear-gradient-7)"/><rect x="511.58" y="141.41" width="17.73" height="262.58" fill="#68c5fd"/><rect x="513.61" y="141.41" width="17.73" height="262.58" fill="url(#linear-gradient-8)"/><rect x="518.66" y="141.41" width="2.5" height="262.58" fill="#68c5fd"/><polygon points="518.8 279.94 518.8 283.23 518.49 297.84 452.63 275.76 452.52 275.72 453.37 258.5 518.8 279.94" fill="#68c5fd"/><polygon points="518.49 282.48 518.49 299.4 452.63 275.76 453.37 261 518.49 282.48" fill="url(#linear-gradient-9)"/><rect x="256.48" y="114.32" width="17.73" height="260.23" fill="#68c5fd"/><rect x="258.51" y="114.32" width="17.73" height="260.23" fill="url(#linear-gradient-10)"/><rect x="267.38" y="258.24" width="175.91" height="16.58" fill="#68c5fd"/><rect x="267.38" y="258.24" width="175.91" height="16.58" fill="url(#linear-gradient-11)"/><rect x="274.04" y="258.24" width="166.99" height="2.27" fill="url(#linear-gradient-12)"/><rect x="267.38" y="173.09" width="175.91" height="16.58" fill="#68c5fd"/><rect x="267.38" y="173.09" width="175.91" height="16.58" fill="url(#linear-gradient-13)"/><rect x="269.68" y="177.46" width="175.91" height="16.58" fill="#68c5fd"/><rect x="267.38" y="175.16" width="175.91" height="18.88" fill="url(#linear-gradient-14)"/><polygon points="327.36 197.25 274.21 177.46 274.21 181.78 327.36 201.56 327.36 197.25" fill="#68c5fd"/><polygon points="327.36 197.25 274.21 177.46 274.21 181.78 327.36 201.56 327.36 197.25" fill="url(#linear-gradient-15)"/><rect x="274.21" y="177.46" width="166.82" height="1.73" fill="#68c5fd"/><rect x="274.21" y="171.93" width="166.82" height="1.73" fill="#68c5fd"/><rect x="263.56" y="114.32" width="10.65" height="260.23" fill="#68c5fd"/><rect x="263.56" y="114.32" width="10.65" height="260.23" fill="url(#linear-gradient-16)"/><rect x="342.58" y="284.35" width="175.91" height="16.58" fill="#68c5fd"/><rect x="342.58" y="286.64" width="175.91" height="14.28" fill="url(#linear-gradient-17)"/><path d="M186.12,306.62c-1,6.78-3.79,13.5-8.92,18s-12.79,6.5-19.11,3.83c-6.61-2.79-10.38-9.66-13.64-16-.07,16.07,6.38,32,4.14,47.87a12.15,12.15,0,0,1-2.39,6.41c-1.72,2-4.38,2.83-6.91,3.53a151,151,0,0,1-27,4.77c-.88.07-1.75.15-2.63.2-1.06-5.24-1.5-12.07-1.58-20.39,0-.82,0-1.67,0-2.52,0-6.68.16-14.24.41-22.62,0-.61,0-1.22,0-1.83,0-.07,0-.13,0-.2s0-.22,0-.4c0-.47,0-1.2.06-2,0-.2,0-.41,0-.62s0-.42,0-.64c0-.4,0-.8,0-1.18,0-.22,0-.45,0-.66,0-1,0-1.76,0-1.76q.26-7.8.5-16.42c0-.74,0-1.47.05-2.22a29.19,29.19,0,0,1,.72-6.06,13.08,13.08,0,0,1,5.49-8.1h0a28.6,28.6,0,0,1,6.76-3.26C131.63,281,143,283,149.84,290.2a27,27,0,0,1,3.15,4.07c1.52,2.32,2.78,4.8,4.1,7.26A50.83,50.83,0,0,0,161.7,309c1.58,2,3.88,3.91,6.37,3.47,3.58-.64,4.56-5.24,4.6-8.85a132.3,132.3,0,0,0-1-17.91,53.83,53.83,0,0,1,13.71.5,108.19,108.19,0,0,1,1.13,11.06A51.81,51.81,0,0,1,186.12,306.62Z" transform="translate(0 -65.71)" fill="#68c5fd"/><path d="M128.82,335.67c-2.68,4.37-6.33,8.06-10,11.6-1.73,1.65-.72,21.55-2.51,23.15-.65.58-2.24,2.54-4,4.6-.88.07-1.75.15-2.63.2-1.06-5.24-1.5-12.07-1.58-20.39,0-.82,0-1.67,0-2.52,0-6.68.16-14.24.41-22.62,0-.61,0-1.22,0-1.83,0-.07,0-.13,0-.2s0-.22,0-.4c0-.47,0-1.2.06-2,0-.2,0-.41,0-.62s0-.42,0-.64c0-.4,0-.8,0-1.18,0-.22,0-.45,0-.66,0-1,0-1.76,0-1.76,1.25-1.09,2.16,3.48,2.39,4.08a1.74,1.74,0,0,0,.33.54,1,1,0,0,0,.72.21,4.74,4.74,0,0,0,3-1.78q2.94-2.94,5.59-6.14l11.82,3.76C133.19,326.15,131.51,331.3,128.82,335.67Z" transform="translate(0 -65.71)" fill="url(#linear-gradient-18)"/><path d="M131,320.75c-3.47,14.24-13.8,28-22.91,31.56-3.73,1.45-7.25,1.2-10-1.43-5-4.47-6-21-4.47-39.52A26.9,26.9,0,0,1,95,304.65a25.06,25.06,0,0,1,4.75-8.06,32.6,32.6,0,0,1,15.86-9.42l-.09.4-1.62,7.88-1.71,8.28-3.43,16.65-2,9.59c0,1.09.67.8,1.69-.28,2.85-3,8.53-12.17,10.93-14.08a1.54,1.54,0,0,0,.2-.18Z" transform="translate(0 -65.71)" fill="#68c5fd"/><path d="M157.09,301.53c-.33.07-.68.11-1,.16-7.34.87-14.75.58-22.13.74s-14.52.76-21.78,1.3l-2.93.23c-4.74.32-9.5.6-14.26.69a25.06,25.06,0,0,1,4.75-8.06,14.17,14.17,0,0,1,2.13-.32c2.72-.22,5.43-.42,8.15-.59,1.29-.09,2.58-.16,3.87-.23,8.64-.5,17.27-.81,25.9-1.12,4.4-.15,8.8-.3,13.19-.06h0C154.51,296.59,155.77,299.07,157.09,301.53Z" transform="translate(0 -65.71)" fill="url(#linear-gradient-19)"/><path d="M137.23,424.28c10.82,14.12,21.05,30,22,47.72.18,3.19.54,7.15,3.52,8.31a7.71,7.71,0,0,0,4.36-.07l11-2.27-6.85-30.67c-1.72-7.74-3.47-15.55-6.73-22.78-2.29-5.07-5.29-9.79-7.76-14.79-6.23-12.62-8.89-26.65-11.49-40.49-12.87.84-42.1-4.89-34.82,14.73C116.24,399.63,129,410.27,137.23,424.28Z" transform="translate(0 -65.71)" fill="#3f3d56"/><path d="M166.56,484.49a5.48,5.48,0,0,0,1,1.95,3.93,3.93,0,0,0,3.64,1,11.64,11.64,0,0,0,3.6-1.57,3.81,3.81,0,0,0,1.53-1.3,3.93,3.93,0,0,0-.1-3l-1.81-5.73a1.21,1.21,0,0,0-.56-.84,1.28,1.28,0,0,0-1.1.31c-2,1.33-5,1.5-6.84,2.82S165.85,482.5,166.56,484.49Z" transform="translate(0 -65.71)" fill="#3f3d56"/><path d="M105.45,487.2a18.86,18.86,0,0,0,5.87,2.56,1.64,1.64,0,0,0,1,0c.48-.17.7-.71.86-1.19l2.59-7.42c-.31.9-5.55-3.64-6.79-3.18C106.67,478.88,105.9,485.11,105.45,487.2Z" transform="translate(0 -65.71)" fill="#3f3d56"/><path d="M173.93,481.9a13.09,13.09,0,0,1,3.48-.73c3.33-.08,6.51,2.37,9.75,1.61a23.26,23.26,0,0,1,2.56-.73,4.3,4.3,0,0,1,4.39,3.51,6.7,6.7,0,0,1-1.81,5.66,16,16,0,0,1-5.07,3.45,40.9,40.9,0,0,1-12.37,3.8,6.49,6.49,0,0,1-3.25-.18,5.89,5.89,0,0,1-2.19-1.72c-2.08-2.38-4.44-6.56-4.07-9.88C165.74,483.18,171.14,482.76,173.93,481.9Z" transform="translate(0 -65.71)" fill="#3f3d56"/><path d="M114.48,488.21a3.87,3.87,0,0,1,1.3.65,4.2,4.2,0,0,1,.92,1.7,17.1,17.1,0,0,0,5.62,7.54,10.19,10.19,0,0,1,2.74,2.48,2.52,2.52,0,0,1-.36,3.34,3.32,3.32,0,0,1-1.89.4,46.93,46.93,0,0,1-6.47-.63c-5.81-.84-12-1.85-16.36-5.78a6.12,6.12,0,0,1-2.26-3.76c-.18-1.9,1-3.4,2-4.88.72-1.08,1.65-3.49,2.78-4.2C105.05,483.5,111.87,487.31,114.48,488.21Z" transform="translate(0 -65.71)" fill="#3f3d56"/><path d="M242.22,275.69s-.07,1.09-.16,2.76c-.3,5.22-.93,16.06-1,16.25S1.25,305.32,1.25,305.32l-1-14L0,288.61l14-.13Z" transform="translate(0 -65.71)" fill="#68c5fd"/><path d="M242.06,278.45c-.3,5.22-.93,16.06-1,16.25S1.25,305.32,1.25,305.32l-1-14L14,291.21Z" transform="translate(0 -65.71)" fill="url(#linear-gradient-20)"/><path d="M242.22,282.4s-.07,1.09-.16,2.76c-.3,5.23-.93,16.07-1,16.25S1.25,312,1.25,312l-1-14L0,295.32l14-.13Z" transform="translate(0 -65.71)" fill="#68c5fd"/><path d="M242.06,285.16c-.3,5.23-.93,16.07-1,16.25S1.25,312,1.25,312l-1-14L14,297.93Z" transform="translate(0 -65.71)" fill="url(#linear-gradient-21)"/><polygon points="263.56 278.77 341.37 302.6 341.32 282.75 263.56 258.87 263.56 278.77" fill="#68c5fd"/><polygon points="341.37 302.6 341.36 302.6 263.56 278.78 263.56 258.87 341.32 282.75 341.37 302.6" fill="url(#linear-gradient-22)"/><polygon points="341.36 302.6 263.56 278.78 263.56 261.26 341.32 285.14 341.36 302.6" fill="url(#linear-gradient-23)"/><rect x="342.58" y="199.2" width="175.91" height="16.06" fill="#68c5fd"/><rect x="342.58" y="201.56" width="175.91" height="13.7" fill="url(#linear-gradient-24)"/><rect x="342.58" y="203.9" width="175.91" height="18.36" fill="#68c5fd"/><rect x="342.58" y="206.26" width="175.91" height="15.92" fill="url(#linear-gradient-25)"/><path d="M128.39,319c2.53-3.06,3.52-6.13,4.69-9.93.35-1.14-.76-1.19-2.07,1.93.33-2.21,1-5.78,1-6.63-1.17-1.08-1.43.89-1.76,1.69a34.5,34.5,0,0,0-1.39,3.25c.2-1.9.18-2.79.38-4.69,0-.35,0-.83-.35-.91-1.8.36-1.09,4.55-2.69,6.15.26-1.75.53-5.89,0-5.62-1,0-1.48,1.28-1.66,2.29l-1,5.67c-.56-.17-.67-.89-.81-1.46s-.75-1.2-1.22-.85a.84.84,0,0,0-.28.52,7.42,7.42,0,0,0,.16,2.14,4.77,4.77,0,0,1-1.32,3.76A34.3,34.3,0,0,0,128.39,319Z" transform="translate(0 -65.71)" fill="url(#linear-gradient-26)"/><polygon points="263.56 258.87 281.29 258.87 327.36 271.42 327.36 278.48 263.56 258.87" fill="url(#linear-gradient-27)"/><rect x="263.56" y="114.32" width="2.5" height="260.23" fill="#68c5fd"/><rect x="327.36" y="141.17" width="17.73" height="262.58" fill="#68c5fd"/><rect x="329.39" y="141.17" width="17.73" height="262.58" fill="url(#linear-gradient-28)"/><rect x="334.44" y="141.17" width="2.5" height="262.58" fill="#68c5fd"/><polygon points="266.06 178.74 327.36 201.56 327.36 222.18 266.06 195.56 266.06 178.74" fill="#68c5fd"/><polygon points="266.06 181.38 327.36 204.21 327.36 222.18 266.06 195.56 266.06 181.38" fill="url(#linear-gradient-29)"/><polygon points="274.21 177.46 327.36 197.25 327.36 199.61 274.21 179.88 274.21 177.46" fill="#68c5fd"/><rect x="441.03" y="5.42" width="17.73" height="155.82" fill="#68c5fd"/><rect x="448.56" y="5.42" width="10.2" height="254.81" fill="url(#linear-gradient-30)"/><path d="M458.76,125.36c0-.55,63.72,21.78,63.72,21.78L524,169l-66.65-24.12-.17-19.56Z" transform="translate(0 -65.71)" fill="#68c5fd"/><path d="M457.17,127.24c0-.55,65.31,23,65.31,23L524,168.11,457.32,144Z" transform="translate(0 -65.71)" fill="url(#linear-gradient-31)"/><path d="M453.77,129.73c0-.56,63.71,21.77,63.71,21.77L519,172l-66.65-24.12-.17-18.15Z" transform="translate(0 -65.71)" fill="#68c5fd"/><path d="M452.18,131.13c0-.56,65.3,23,65.3,23L519,172l-66.65-24.12Z" transform="translate(0 -65.71)" fill="url(#linear-gradient-32)"/><rect x="511.58" y="27.09" width="17.73" height="262.58" fill="#68c5fd"/><rect x="513.61" y="27.09" width="17.73" height="262.58" fill="url(#linear-gradient-33)"/><rect x="518.66" y="27.09" width="2.5" height="262.58" fill="#68c5fd"/><rect x="256.48" width="17.73" height="260.23" fill="#68c5fd"/><rect x="258.51" width="17.73" height="260.23" fill="url(#linear-gradient-34)"/><rect x="267.38" y="58.77" width="175.91" height="16.58" fill="#68c5fd"/><rect x="267.38" y="58.77" width="175.91" height="16.58" fill="url(#linear-gradient-35)"/><rect x="269.68" y="63.14" width="175.91" height="16.58" fill="#68c5fd"/><rect x="267.38" y="60.84" width="175.91" height="18.88" fill="url(#linear-gradient-36)"/><polygon points="327.36 82.93 274.21 63.14 274.21 67.45 327.36 87.24 327.36 82.93" fill="#68c5fd"/><polygon points="327.36 82.93 274.21 63.14 274.21 67.45 327.36 87.24 327.36 82.93" fill="url(#linear-gradient-37)"/><rect x="274.21" y="63.14" width="166.82" height="1.73" fill="#68c5fd"/><rect x="274.21" y="57.61" width="166.82" height="1.73" fill="#68c5fd"/><rect x="263.56" width="10.65" height="260.23" fill="#68c5fd"/><rect x="263.56" width="10.65" height="260.23" fill="url(#linear-gradient-38)"/><rect x="342.58" y="84.88" width="175.91" height="16.06" fill="#68c5fd"/><rect x="342.58" y="87.24" width="175.91" height="13.7" fill="url(#linear-gradient-39)"/><rect x="342.58" y="89.58" width="175.91" height="18.36" fill="#68c5fd"/><rect x="342.58" y="91.94" width="175.91" height="15.92" fill="url(#linear-gradient-40)"/><rect x="263.56" width="2.5" height="260.23" fill="#68c5fd"/><rect x="327.36" y="26.85" width="17.73" height="262.58" fill="#68c5fd"/><rect x="329.39" y="26.85" width="17.73" height="262.58" fill="url(#linear-gradient-41)"/><rect x="334.44" y="26.85" width="2.5" height="262.58" fill="#68c5fd"/><polygon points="266.06 64.42 327.36 87.24 327.36 107.86 266.06 81.24 266.06 64.42" fill="#68c5fd"/><polygon points="266.06 67.06 327.36 89.89 327.36 107.86 266.06 81.24 266.06 67.06" fill="url(#linear-gradient-42)"/><polygon points="274.21 63.14 327.36 82.93 327.36 85.28 274.21 65.55 274.21 63.14" fill="#68c5fd"/><path d="M174.93,277.45a6.84,6.84,0,0,0-1.19,2.17,4.53,4.53,0,0,0-.43,1.94,1.65,1.65,0,0,0,1.1,1.52.61.61,0,0,0,.51-.05.77.77,0,0,0,.24-.32,22.58,22.58,0,0,0,1.38-3.19,3.49,3.49,0,0,0-.43,3.67c.2.41.59.81,1,.71s.57-.54.68-.93c.26-.92.47-1.85.64-2.78a11.26,11.26,0,0,0-.27,1.82,2.06,2.06,0,0,0,.12.93.76.76,0,0,0,.75.47,1.1,1.1,0,0,0,.64-.49,13.65,13.65,0,0,0,1.75-3,6,6,0,0,0,.12,3,.75.75,0,0,0,.25.38c.41.31,1-.15,1.24-.59a9.39,9.39,0,0,0,1.16-2.7,3.31,3.31,0,0,0,.1-1.56,1.5,1.5,0,0,0-1-1.15,1,1,0,0,0-1.21.7c.09-.67-.66-1.21-1.33-1.14a2.58,2.58,0,0,0-1.63,1.09,1.31,1.31,0,0,0-1.21-1.2C176.74,276.64,175.89,276.38,174.93,277.45Z" transform="translate(0 -65.71)" fill="url(#linear-gradient-43)"/><path d="M186.12,306.62c-1,6.78-3.79,13.5-8.92,18s-12.79,6.5-19.11,3.83c-6.61-2.79-10.38-9.66-13.64-16,0,0,.39-5.67,4.5-2.29s10.2,23.87,22.79,11.9,12.64-24.74,12.64-24.74l2.15-.09A51.81,51.81,0,0,1,186.12,306.62Z" transform="translate(0 -65.71)" fill="url(#linear-gradient-44)"/></svg>