<svg id="Layer_1" data-name="Layer 1" xmlns="http://www.w3.org/2000/svg" xmlns:xlink="http://www.w3.org/1999/xlink" viewBox="0 0 551.67 466.53"><defs><linearGradient id="linear-gradient" x1="107.14" y1="106.53" x2="105.91" y2="28.14" gradientTransform="matrix(0.96, 0.27, -0.24, 0.86, 203.47, -31.41)" gradientUnits="userSpaceOnUse"><stop offset="0" stop-color="#010101" stop-opacity="0"/><stop offset="0.95" stop-color="#010101"/></linearGradient><linearGradient id="linear-gradient-2" x1="541.17" y1="548.16" x2="6.58" y2="-70.94" gradientTransform="matrix(1, 0, 0, 1, 0, 0)" xlink:href="#linear-gradient"/><linearGradient id="linear-gradient-3" x1="466.25" y1="217.37" x2="142.92" y2="250.44" gradientTransform="matrix(1, 0, 0, 1, 0, 0)" xlink:href="#linear-gradient"/><linearGradient id="linear-gradient-4" x1="257.97" y1="112.86" x2="302.06" y2="-127.8" gradientTransform="matrix(1, 0, 0, 1, 0, 0)" xlink:href="#linear-gradient"/><linearGradient id="linear-gradient-5" x1="305.49" y1="20.45" x2="288.5" y2="52.14" gradientTransform="matrix(1, 0, 0, 1, 0, 0)" xlink:href="#linear-gradient"/><linearGradient id="linear-gradient-6" x1="254.65" y1="97.02" x2="253.42" y2="18.64" gradientTransform="matrix(1, 0, 0, 1, 0, 0)" xlink:href="#linear-gradient"/><linearGradient id="linear-gradient-7" x1="-375.63" y1="157.83" x2="-371.26" y2="157.83" gradientTransform="matrix(-1, 0, 0, 1, -140.3, 0)" gradientUnits="userSpaceOnUse"><stop offset="0" stop-color="#e4c5d5"/><stop offset="0.42" stop-color="#e9d3cf"/><stop offset="1" stop-color="#efe8ca"/></linearGradient><linearGradient id="linear-gradient-8" x1="-270.81" y1="155.57" x2="-266.44" y2="155.57" gradientTransform="translate(470.54)" xlink:href="#linear-gradient-7"/><linearGradient id="linear-gradient-9" x1="-364.49" y1="122.51" x2="-360.23" y2="133.81" gradientTransform="matrix(-1, 0, 0, 1, -140.3, 0)" xlink:href="#linear-gradient"/><linearGradient id="linear-gradient-10" x1="-368.8" y1="176.9" x2="-349.97" y2="176.9" xlink:href="#linear-gradient-7"/><linearGradient id="linear-gradient-11" x1="-361.26" y1="183.59" x2="-352.56" y2="140.62" gradientTransform="matrix(-1, 0, 0, 1, -140.3, 0)" gradientUnits="userSpaceOnUse"><stop offset="0.12" stop-color="#010101" stop-opacity="0"/><stop offset="0.95" stop-color="#010101"/></linearGradient><linearGradient id="linear-gradient-12" x1="-372.77" y1="153.44" x2="-342.94" y2="153.44" xlink:href="#linear-gradient-7"/><linearGradient id="linear-gradient-13" x1="-340.22" y1="155.73" x2="-349.06" y2="153.89" xlink:href="#linear-gradient-11"/><linearGradient id="linear-gradient-14" x1="-247.53" y1="157.9" x2="-256.37" y2="156.07" gradientTransform="translate(482.42)" xlink:href="#linear-gradient-11"/></defs><title>Personal Data 1</title><path d="M555.8,342.49c.88,55.82-43.23,108.9-98.23,118.26-25.74,4.4-52,.16-78.14-1-56.86-2.48-113.59,9.72-170.35,11-11.49.26-23,0-34.52-.81a300.15,300.15,0,0,1-109-29.56C51,433.28,36.79,424.8,26.19,412.6,3.45,386.46,1.26,348.2,6.52,314s16.83-67.63,17.42-102.25c.42-24.17-4.54-48.08-5.81-72.22S19.79,89.79,34,70.25,71.86,40,95.55,35.34s48-4.05,72.13-5.55c49.91-3.06,98.78-15.23,148.4-21.3,74-9.07,193-12,201.19,84.85a212.41,212.41,0,0,1,.52,24.08c-.72,26.75-4.83,53.6-1.43,80.15C522.72,247.46,555,292.22,555.8,342.49Z" transform="translate(-4.14 -4.3)" fill="#68c5fd" opacity="0.24" style="isolation:isolate"/><path d="M555.8,342.49c.88,55.82-43.23,108.9-98.23,118.26-25.74,4.4-52,.16-78.14-1-56.86-2.48-113.59,9.72-170.35,11-13.9-13.11-27.77-26.23-40.82-40.13-4-4.33-8.22-9.13-9-15-.56-4.37.85-8.75,2.25-12.92a830.15,830.15,0,0,1,100.61-200.8c19.84-29,41.5-56.6,63.68-83.81,15.07-18.46,34.58-54.38,61.33-56.14,21.8-1.44,47.08,18.56,66,27.11,21.44,9.69,43.06,19,64.66,28.38-.72,26.75-4.83,53.6-1.43,80.15C522.72,247.46,555,292.22,555.8,342.49Z" transform="translate(-4.14 -4.3)" fill="#68c5fd" opacity="0.24" style="isolation:isolate"/><path d="M305.9,72.06l-12.48-3.92,3.41-29.37,1,0c1.24-1,4.86-5.33,3.89-8.54-.87-2.94-5.55-4.12-9.34-4.61-5.38-.68-8.9-.07-10.19,1.75-1.73,2.46.55,7.08,1.58,8.65l.27.41-1.88,28.39-13.85-3.82.78-2.81L279.12,61l1.58-24c-1-1.63-4-7.42-1.31-11.29,2-2.84,6.44-3.85,13.22-3,10.59,1.35,12.62,5.73,12.47,9.17s-3.06,7.66-5.25,9.23l-2.91,25,9.88,3.1Z" transform="translate(-4.14 -4.3)" fill="url(#linear-gradient)"/><polygon points="403.79 416.82 152.72 416.82 137.1 403.96 152.72 65.32 388.17 52.46 403.79 65.32 403.79 416.82" fill="#68c5fd"/><polygon points="403.79 416.82 152.72 416.82 137.1 403.96 152.72 65.32 388.17 52.46 403.79 65.32 403.79 416.82" fill="url(#linear-gradient-2)"/><polygon points="395.52 410.69 148.74 411.31 137.1 403.96 145.37 64.1 380.82 51.24 396.44 64.1 395.52 410.69" fill="url(#linear-gradient-3)"/><rect x="137.1" y="52.46" width="251.07" height="351.5" fill="#fff"/><path d="M220.36,81.22c-.13.89-.19,2,.53,2.5a2.51,2.51,0,0,0,1.3.36,245.24,245.24,0,0,0,69.19-3.84c3.75-.75,8.29-2.47,8.56-6.28.25-3.38-3-7.51-.38-9.63a6.4,6.4,0,0,1,3.25-.91,14.2,14.2,0,0,0,10.11-6.72l-65.65-.53c-6.38-.05-18-2.73-22.56,3C221.18,63.56,220.36,76,220.36,81.22Z" transform="translate(-4.14 -4.3)" fill="url(#linear-gradient-4)"/><polygon points="288.97 67.92 221 67.92 216.4 25.67 284.83 25.21 288.97 67.92" fill="#68c5fd"/><polygon points="284.83 25.21 310.1 37.77 306.42 52.46 287.74 52.46 284.83 25.21" fill="#68c5fd"/><polygon points="284.83 25.21 310.1 37.77 306.42 52.46 287.74 52.46 284.83 25.21" fill="url(#linear-gradient-5)"/><path d="M273.76,71.56l-13.08-.51-4.52-32.66.94-.24c.93-1.46,3.27-7.18,1.48-10.36-1.62-2.9-6.45-2.79-10.22-2.18-5.37.86-8.61,2.56-9.36,4.91-1,3.16,2.41,7.46,3.81,8.85l.37.36,5.73,31.14H234.55V67.61H245l-4.84-26.3c-1.36-1.47-5.85-6.79-4.26-11.78,1.16-3.65,5.18-6.05,12-7.14,10.56-1.69,13.68,2.42,14.46,6.18s-.92,9.16-2.61,11.5l3.84,27.82,10.35.41Z" transform="translate(-4.14 -4.3)" fill="url(#linear-gradient-6)"/><rect x="175.07" y="106.04" width="77.16" height="97.37" fill="#68c5fd"/><rect x="276.11" y="119.52" width="82.06" height="7.96" rx="3.98" fill="#68c5fd"/><rect x="276.11" y="136.97" width="82.06" height="7.96" rx="3.98" fill="#68c5fd"/><rect x="276.11" y="162.38" width="82.06" height="7.96" rx="3.98" fill="#68c5fd"/><rect x="276.11" y="179.83" width="82.06" height="7.96" rx="3.98" fill="#68c5fd"/><rect x="229.26" y="260.67" width="82.06" height="7.96" rx="3.98" fill="#68c5fd"/><rect x="229.26" y="278.12" width="82.06" height="7.96" rx="3.98" fill="#68c5fd"/><rect x="229.26" y="319.45" width="82.06" height="7.96" rx="3.98" fill="#68c5fd"/><rect x="229.26" y="336.9" width="82.06" height="7.96" rx="3.98" fill="#68c5fd"/><rect x="173.23" y="216.58" width="184.93" height="7.96" rx="3.98" fill="#68c5fd"/><rect x="173.23" y="234.03" width="184.93" height="7.96" rx="3.98" fill="#68c5fd"/><rect x="182.42" y="255.77" width="32.15" height="28.47" fill="#68c5fd"/><rect x="182.42" y="318.23" width="32.15" height="28.47" fill="#68c5fd"/><path d="M195.3,190.54c-4.65,3.41-8.82,9.54-8,15.26,22.77-1.12,44.38.19,64.17-.1-.4-5.2-2.49-11.81-6.11-15.56a22.34,22.34,0,0,0-6.42-4.15c-4.82-2.37-9.71-4.73-15-5.83C213.38,177.93,203.61,184.46,195.3,190.54Z" transform="translate(-4.14 -4.3)" fill="#fff"/><path d="M235.3,155.76a5.89,5.89,0,0,1-1.54,4.62,2.36,2.36,0,0,1-1,.7c-2,.65-2.09-3.39-1.52-4.54C231.92,155.23,235,153.16,235.3,155.76Z" transform="translate(-4.14 -4.3)" fill="url(#linear-gradient-7)"/><path d="M199.77,153.5a5.9,5.9,0,0,0,1.53,4.62,2.56,2.56,0,0,0,1,.7c2,.65,2.09-3.4,1.51-4.54C203.15,153,200.07,150.9,199.77,153.5Z" transform="translate(-4.14 -4.3)" fill="url(#linear-gradient-8)"/><path d="M215,122.1a11.2,11.2,0,0,1,7.48-4.07c2.84-.3,6,.68,7.52,3.08a11.24,11.24,0,0,1,1.3,6,11.79,11.79,0,0,1-.88,5.66,7.91,7.91,0,0,1-4.23,3.63c-4.16,1.64-9.07.31-12.29-2.65S212.48,125.16,215,122.1Z" transform="translate(-4.14 -4.3)" fill="#606161"/><path d="M215,122.1a11.2,11.2,0,0,1,7.48-4.07c2.84-.3,6,.68,7.52,3.08a11.24,11.24,0,0,1,1.3,6,11.79,11.79,0,0,1-.88,5.66,7.91,7.91,0,0,1-4.23,3.63c-4.16,1.64-9.07.31-12.29-2.65S212.48,125.16,215,122.1Z" transform="translate(-4.14 -4.3)" fill="url(#linear-gradient-9)"/><path d="M225,167.06s.12,13.22,3.13,16-12.06,15.77-18.44,1.27c0,0,3.71-6.26,2.44-16.81S225,167.06,225,167.06Z" transform="translate(-4.14 -4.3)" fill="url(#linear-gradient-10)"/><path d="M225.44,170.19v2.9s-7.65,11-10.78,7.31-2.21-4.52-2.21-4.52l-.34-8.35Z" transform="translate(-4.14 -4.3)" fill="url(#linear-gradient-11)"/><path d="M232.29,148.16s2.2,20.18-8.59,24.18-17.22-1.74-20.18-11.48,1.57-29.4,13-27.49S232.29,148.16,232.29,148.16Z" transform="translate(-4.14 -4.3)" fill="url(#linear-gradient-12)"/><path d="M234,154.94a5.38,5.38,0,0,0,.93-2.35,22,22,0,0,0-7.3-20.7,12.5,12.5,0,0,0-4.05-2.39A12.93,12.93,0,0,0,219,129a23.05,23.05,0,0,0-13.42,4.83A17.55,17.55,0,0,0,199,146.31a8.48,8.48,0,0,0,.68,4.2,4.61,4.61,0,0,0,3.21,2.62c2.49.43,3.17-1.87,5.19-3.4,3-2.31,4-5.74,10.9-5.16C230.2,145.51,231,158.63,234,154.94Z" transform="translate(-4.14 -4.3)" fill="#606161"/><path d="M201.77,154.94a1.31,1.31,0,0,1-.31-.43,2.89,2.89,0,0,1-.08-.58.84.84,0,0,0-.26-.5.58.58,0,0,0-.55-.1.62.62,0,0,0-.33.38,2.16,2.16,0,0,0-.07.51,4,4,0,0,0,.29,1.95,4.34,4.34,0,0,0,.93,1.12.77.77,0,0,0,.52.28.69.69,0,0,0,.36-.13.45.45,0,0,0,.13-.1.4.4,0,0,0,0-.15,3.76,3.76,0,0,0,0-1.38A1.82,1.82,0,0,0,201.77,154.94Z" transform="translate(-4.14 -4.3)" fill="url(#linear-gradient-13)"/><path d="M233,157.11a1.31,1.31,0,0,0,.31-.43,2.7,2.7,0,0,0,.08-.57.78.78,0,0,1,.27-.5.53.53,0,0,1,.54-.11.65.65,0,0,1,.33.38,2.25,2.25,0,0,1,.07.52,4,4,0,0,1-.29,1.95,4.3,4.3,0,0,1-.93,1.11.83.83,0,0,1-.52.29.7.7,0,0,1-.36-.14.26.26,0,0,1-.13-.1.37.37,0,0,1,0-.15,3.71,3.71,0,0,1,0-1.37A1.85,1.85,0,0,1,233,157.11Z" transform="translate(-4.14 -4.3)" fill="url(#linear-gradient-14)"/></svg>