<svg id="Layer_1" data-name="Layer 1" xmlns="http://www.w3.org/2000/svg" xmlns:xlink="http://www.w3.org/1999/xlink" viewBox="0 0 501.27 363.07"><defs><linearGradient id="linear-gradient" x1="139.54" y1="59.33" x2="311.17" y2="594.65" gradientUnits="userSpaceOnUse"><stop offset="0" stop-color="#010101" stop-opacity="0"/><stop offset="0.95" stop-color="#010101"/></linearGradient><linearGradient id="linear-gradient-2" x1="147.58" y1="87.91" x2="138.73" y2="297.68" xlink:href="#linear-gradient"/><linearGradient id="linear-gradient-3" x1="238.59" y1="86.68" x2="229.73" y2="296.44" xlink:href="#linear-gradient"/><linearGradient id="linear-gradient-4" x1="318.78" y1="115.3" x2="309.92" y2="325.07" gradientTransform="translate(631.41 376.03) rotate(-180)" xlink:href="#linear-gradient"/><linearGradient id="linear-gradient-5" x1="148.81" y1="174.84" x2="189.67" y2="386.56" xlink:href="#linear-gradient"/><linearGradient id="linear-gradient-6" x1="240.41" y1="332.03" x2="240.92" y2="308.02" gradientUnits="userSpaceOnUse"><stop offset="0" stop-color="#fff" stop-opacity="0"/><stop offset="0.95" stop-color="#fff"/></linearGradient><linearGradient id="linear-gradient-7" x1="83" y1="76.59" x2="113.52" y2="76.59" xlink:href="#linear-gradient"/><linearGradient id="linear-gradient-8" x1="86.36" y1="65.69" x2="104.48" y2="65.69" gradientUnits="userSpaceOnUse"><stop offset="0" stop-color="#e5c6d6"/><stop offset="0.42" stop-color="#ead4d0"/><stop offset="1" stop-color="#f0e9cb"/></linearGradient><linearGradient id="linear-gradient-9" x1="85.45" y1="71.7" x2="103.56" y2="71.7" xlink:href="#linear-gradient-8"/><linearGradient id="linear-gradient-10" x1="84.31" y1="77.04" x2="102.42" y2="77.04" xlink:href="#linear-gradient-8"/><linearGradient id="linear-gradient-11" x1="83.08" y1="82.37" x2="101.2" y2="82.37" xlink:href="#linear-gradient-8"/><linearGradient id="linear-gradient-12" x1="97.46" y1="80.82" x2="134.6" y2="80.82" xlink:href="#linear-gradient-8"/><linearGradient id="linear-gradient-13" x1="381.81" y1="83.59" x2="420.84" y2="83.59" xlink:href="#linear-gradient"/><linearGradient id="linear-gradient-14" x1="-900.99" y1="61.43" x2="-885.04" y2="61.43" gradientTransform="matrix(-1, 0, 0, 1, -486.08, 0)" xlink:href="#linear-gradient-8"/><linearGradient id="linear-gradient-15" x1="-901.79" y1="66.72" x2="-885.84" y2="66.72" gradientTransform="matrix(-1, 0, 0, 1, -486.08, 0)" xlink:href="#linear-gradient-8"/><linearGradient id="linear-gradient-16" x1="-902.8" y1="71.43" x2="-886.85" y2="71.43" gradientTransform="matrix(-1, 0, 0, 1, -486.08, 0)" xlink:href="#linear-gradient-8"/><linearGradient id="linear-gradient-17" x1="-903.87" y1="76.12" x2="-887.93" y2="76.12" gradientTransform="matrix(-1, 0, 0, 1, -486.08, 0)" xlink:href="#linear-gradient-8"/><linearGradient id="linear-gradient-18" x1="-891.21" y1="74.76" x2="-858.51" y2="74.76" gradientTransform="matrix(-1, 0, 0, 1, -486.08, 0)" xlink:href="#linear-gradient-8"/><linearGradient id="linear-gradient-19" x1="147.79" y1="246.64" x2="241.43" y2="246.64" xlink:href="#linear-gradient"/><linearGradient id="linear-gradient-20" x1="162.34" y1="149.13" x2="117.39" y2="282.27" xlink:href="#linear-gradient-6"/><linearGradient id="linear-gradient-21" x1="178.61" y1="70.71" x2="279.06" y2="343.47" xlink:href="#linear-gradient"/><linearGradient id="linear-gradient-22" x1="492.29" y1="80.27" x2="334.27" y2="167.36" xlink:href="#linear-gradient"/><linearGradient id="linear-gradient-23" x1="240.81" y1="172.66" x2="267.15" y2="172.66" xlink:href="#linear-gradient-8"/><linearGradient id="linear-gradient-24" x1="246.96" y1="190.27" x2="258.97" y2="143.79" xlink:href="#linear-gradient"/><linearGradient id="linear-gradient-25" x1="226.51" y1="138.01" x2="278.03" y2="138.01" xlink:href="#linear-gradient-8"/><linearGradient id="linear-gradient-26" x1="59.08" y1="221.04" x2="75.66" y2="221.04" xlink:href="#linear-gradient"/><linearGradient id="linear-gradient-27" x1="203.65" y1="197.07" x2="-55.84" y2="289.01" xlink:href="#linear-gradient"/></defs><title>Revenue 2</title><path d="M143,377.94a766.15,766.15,0,0,0,287.24-7.29c12.1-2.64,24.46-5.71,34.64-12.77,8.76-6.07,15.39-14.75,21.09-23.75,21.34-33.72,31.16-78.24,12.61-113.57-19.71-37.53-63.95-53.69-96.48-80.88-25-20.86-43.13-48.49-62.78-74.43-8.06-10.66-16.79-21.38-28.66-27.53-9.77-5-20.91-6.6-31.81-8.08C234,23.55,183.43,18.93,148.08,47.27c-44.7,35.86-44.87,109.22-90.74,143.58-8.8,6.59-18.91,11.38-27.2,18.6C.24,235.47,1,292.67,23.78,323.07,50.28,358.43,102.11,371.17,143,377.94Z" transform="translate(-7.15 -25.05)" fill="#68c5fd" opacity="0.24" style="isolation:isolate"/><polygon points="343.75 82.5 332.9 83.33 331.89 70.09 219.12 199.22 157.4 148.32 10.49 282.38 3.16 274.37 157.04 133.91 217.85 184.09 322.78 63.92 308.09 67.98 305.22 57.5 341.11 47.59 343.75 82.5" fill="#68c5fd"/><polygon points="343.75 82.5 332.9 83.33 331.89 70.09 219.12 199.22 157.4 148.32 10.49 282.38 3.16 274.37 157.04 133.91 217.85 184.09 322.78 63.92 308.09 67.98 305.22 57.5 341.11 47.59 343.75 82.5" fill="url(#linear-gradient)"/><path d="M60.73,267.87c8.63,5.65,14.35,14.78,22.28,21.38l-7,19-4.59-5c-3.93-4.24-7.91-8.52-12.68-11.8S48.27,286,42.5,286.38c0,0,2.92-17.63,4.37-19.37C51.12,261.9,55.29,264.31,60.73,267.87Z" transform="translate(-7.15 -25.05)" fill="#68c5fd"/><path d="M49.46,268.6,48,279.39a4.75,4.75,0,0,1,3.7,4.22s14.5,4.79,19.86,15.07c0,0,3.64-1,5,.64l2.87-7s-1.91-2.42-1.4-4.4c0,0-13.86-18.48-22.54-20.05A10.87,10.87,0,0,1,49.46,268.6Z" transform="translate(-7.15 -25.05)" fill="#fff"/><rect x="135.03" y="56.77" width="17.53" height="241.35" fill="#68c5fd"/><rect x="225.18" y="27.8" width="20.37" height="270.32" fill="#68c5fd"/><rect x="306.21" y="52.85" width="18.99" height="270.32" transform="translate(624.27 350.98) rotate(180)" fill="#68c5fd"/><rect x="135.03" y="56.77" width="17.53" height="241.35" fill="url(#linear-gradient-2)"/><rect x="225.18" y="27.8" width="20.37" height="270.32" fill="url(#linear-gradient-3)"/><rect x="306.21" y="52.85" width="18.99" height="270.32" transform="translate(624.27 350.98) rotate(180)" fill="url(#linear-gradient-4)"/><path d="M113.43,148.79H368.76a14.39,14.39,0,0,1,14.39,14.39V318a0,0,0,0,1,0,0H99a0,0,0,0,1,0,0V163.18A14.39,14.39,0,0,1,113.43,148.79Z" fill="#68c5fd"/><rect x="115.13" y="161.05" width="252.71" height="143.97" fill="#fff"/><path d="M133.49,221.19l1,3.4s38.82-.51,42.22-2a8.14,8.14,0,0,0,4.26-5.11l-1.36-8.68-8.69-15.5Z" transform="translate(-7.15 -25.05)" opacity="0.26" fill="url(#linear-gradient-5)"/><line x1="115.12" y1="305.01" x2="115.12" y2="161.05" fill="#fff"/><path d="M81.43,317.27H400a0,0,0,0,1,0,0v1a22,22,0,0,1-22,22H103.42a22,22,0,0,1-22-22v-1A0,0,0,0,1,81.43,317.27Z" fill="#68c5fd"/><path d="M81.43,317.27H400a0,0,0,0,1,0,0v1a22,22,0,0,1-22,22H103.42a22,22,0,0,1-22-22v-1A0,0,0,0,1,81.43,317.27Z" fill="url(#linear-gradient-6)"/><path d="M122.93,62.74c.9-1.61,2-3.18,2.3-5s-.55-4-2.34-4.46-4,1.16-5.82.37c-1.16-.5-1.7-1.81-2.3-2.92a11.2,11.2,0,0,0-6.38-5.49,8.35,8.35,0,0,0-8.06,1.7,14.37,14.37,0,0,1-1.85,1.73,5,5,0,0,1-5.12-.35c-1.24-.74-2.7-1.85-4-1.13a2.51,2.51,0,0,0-1.07,1.74C87.68,52.09,90,55,91,58.1c1.29,3.93.46,8.21-.38,12.26C89.4,76.08,88.1,82,84.41,86.57s-9.35,7.07-13.16,11.5-5.43,10.33-6.6,16.07a9.31,9.31,0,0,0,0,5.23,9.5,9.5,0,0,0,2.26,3c3.74,3.83,7.66,7.76,12.67,9.65,5.41,2,11.39,1.44,17.17,1.33,4-.08,8.05.09,12-.59s7.9-2.3,10.49-5.35a16.89,16.89,0,0,0,3.57-10,56.31,56.31,0,0,0-.81-10.75q-1.55-11.55-2.19-23.18C119.4,76.31,119.3,69.24,122.93,62.74Z" transform="translate(-7.15 -25.05)" fill="#68c5fd"/><path d="M83.71,93.14c-.57,1.17-1.11,2.67-.27,3.67l9.32-6.64a1,1,0,0,1,.69-.26c.3,0,.48.35.62.62l2.34,4.64,4.43-6.31L110,98c.84.84,2.18,1.71,3.07.92.74-.65.39-1.86,0-2.76-2.73-5.92-3.66-13.54-5.11-19.89-.57-2.49-.86-5-1.44-7.51-1.47-6.36-7.19-10.4-12-14.86.89,3,1.68,6.06,2.37,9.12L94.54,62a44.41,44.41,0,0,0-5.88,17.43C88,84.55,86,88.47,83.71,93.14Z" transform="translate(-7.15 -25.05)" opacity="0.26" fill="url(#linear-gradient-7)"/><path d="M96,62.85a32.81,32.81,0,0,1,5,1.83,6.63,6.63,0,0,1,3.45,3.83,1.92,1.92,0,0,1-.34,1.93,2.34,2.34,0,0,1-2,.26,69.82,69.82,0,0,1-11.64-3.09,8.76,8.76,0,0,1-2.8-1.44,3.2,3.2,0,0,1-1.22-2.78C87.18,57.91,93.35,62,96,62.85Z" transform="translate(-7.15 -25.05)" fill="url(#linear-gradient-8)"/><path d="M95,68.86a34.35,34.35,0,0,1,5,1.83,6.61,6.61,0,0,1,3.44,3.83,1.91,1.91,0,0,1-.33,1.94,2.36,2.36,0,0,1-2,.26A71,71,0,0,1,89.5,73.63a8.81,8.81,0,0,1-2.81-1.44,3.24,3.24,0,0,1-1.22-2.79C86.26,63.93,92.44,68,95,68.86Z" transform="translate(-7.15 -25.05)" fill="url(#linear-gradient-9)"/><path d="M93.9,74.21a34.31,34.31,0,0,1,5,1.82,6.62,6.62,0,0,1,3.44,3.84A1.9,1.9,0,0,1,102,81.8a2.36,2.36,0,0,1-2,.26A70,70,0,0,1,88.36,79a8.81,8.81,0,0,1-2.81-1.44,3.24,3.24,0,0,1-1.22-2.79C85.12,69.27,91.3,73.33,93.9,74.21Z" transform="translate(-7.15 -25.05)" fill="url(#linear-gradient-10)"/><path d="M92.67,79.53a32.81,32.81,0,0,1,5,1.83,6.66,6.66,0,0,1,3.45,3.83,1.92,1.92,0,0,1-.34,1.93,2.3,2.3,0,0,1-2,.27A70.8,70.8,0,0,1,87.13,84.3a8.76,8.76,0,0,1-2.8-1.44,3.21,3.21,0,0,1-1.22-2.79C83.9,74.6,90.07,78.65,92.67,79.53Z" transform="translate(-7.15 -25.05)" fill="url(#linear-gradient-11)"/><path d="M125.86,71.6C120.64,63.76,111,60,101.65,58.84c-1.58-.2-3.65,0-4.11,1.49a2.57,2.57,0,0,0,.24,1.82c1.59,3.35,6.55,4,8.13,7.35a9.93,9.93,0,0,1,.68,3.43c.85,10,3.8,20.44,11.26,27.16a10.33,10.33,0,0,0,4.25,2.55,12.41,12.41,0,0,0,4.17.12c2-.18,4-.36,6-.67s2.63-.49,2.25-2.51c-.61-3.16-2-6.28-2.67-9.48C130.5,83.77,129.52,77.1,125.86,71.6Z" transform="translate(-7.15 -25.05)" fill="url(#linear-gradient-12)"/><path d="M137.53,99.33a1.3,1.3,0,0,1,.06.75,1.28,1.28,0,0,1-.57.58l-12,7.8a3.18,3.18,0,0,1-1.63.66,2.87,2.87,0,0,1-1.53-.63,13.49,13.49,0,0,1-5.13-7.26,1,1,0,0,1,0-.85,1.15,1.15,0,0,1,.68-.42c4.71-1.61,8.61-5.3,13-7.58C135.68,89.65,136.22,94.9,137.53,99.33Z" transform="translate(-7.15 -25.05)" fill="#fff"/><path d="M382.7,58.83a14.14,14.14,0,0,1-2-4.4c-.26-1.61.48-3.54,2.05-3.94s3.53,1,5.13.33c1-.44,1.5-1.59,2-2.57a9.87,9.87,0,0,1,5.62-4.83,7.37,7.37,0,0,1,7.1,1.49,11.63,11.63,0,0,0,1.62,1.52,4.4,4.4,0,0,0,4.51-.3c1.09-.66,2.38-1.63,3.48-1a2.23,2.23,0,0,1,.94,1.52c.58,2.79-1.43,5.38-2.32,8.09-1.13,3.46-.4,7.23.34,10.79,1.05,5,2.19,10.29,5.44,14.28s8.24,6.23,11.59,10.12S433,99,434,104.09a8.22,8.22,0,0,1,0,4.61,8.48,8.48,0,0,1-2,2.67c-3.3,3.36-6.74,6.83-11.15,8.49-4.77,1.8-10,1.27-15.13,1.17a71.5,71.5,0,0,1-10.56-.51c-3.48-.6-6.95-2-9.24-4.72a14.81,14.81,0,0,1-3.14-8.8,49.47,49.47,0,0,1,.71-9.47c.91-6.77,1.55-13.59,1.93-20.41C385.81,70.78,385.9,64.56,382.7,58.83Z" transform="translate(-7.15 -25.05)" fill="#68c5fd"/><path d="M386.77,54.57c1-.45,1.94.58,2.78,1.27a5.21,5.21,0,0,0,8.52-3.59,4.27,4.27,0,0,1,2.61,2.22c.22.47.42,1,.92,1.17a1.27,1.27,0,0,0,.83-.11,9.21,9.21,0,0,0,3.49-3.17L407.74,50c1.44,1.46.95,3.86.55,5.88a31.26,31.26,0,0,0,1,15.85,12.49,12.49,0,0,0,1.77,3.63,22.3,22.3,0,0,0,3.79,3.46A26,26,0,0,1,420.84,86l-10.49-5c-1.2-.57-2.77-1.1-3.73-.18a3.53,3.53,0,0,0-.77,2A24.21,24.21,0,0,1,403,90.6l-1.26-7.81a2.91,2.91,0,0,0-.91-2c-1.22-.89-2.84.5-3.49,1.88-1.5,3.19-1.52,6.91-2.86,10.17-.88,2.13-2.3,4-3.24,6.11a14.91,14.91,0,0,0,.68,13.18c.55,1,1.24,2,1.05,3.1a2.74,2.74,0,0,1-3,2,5.83,5.83,0,0,1-3.36-1.87c-3.33-3.32-4.79-8.18-4.76-12.88a48.72,48.72,0,0,1,1.74-11,63.85,63.85,0,0,1,3.2-10.69c1.82-4.2,4.61-8.23,4.59-12.81,0-3-1.43-5.3-2.83-7.79C387.87,59,384.61,55.56,386.77,54.57Z" transform="translate(-7.15 -25.05)" opacity="0.26" fill="url(#linear-gradient-13)"/><path d="M406.46,58.93a29,29,0,0,0-4.38,1.61,5.83,5.83,0,0,0-3,3.37,1.68,1.68,0,0,0,.29,1.7,2,2,0,0,0,1.75.23,61.44,61.44,0,0,0,10.25-2.72,7.63,7.63,0,0,0,2.47-1.27,2.85,2.85,0,0,0,1.07-2.45C414.19,54.58,408.75,58.15,406.46,58.93Z" transform="translate(-7.15 -25.05)" fill="url(#linear-gradient-14)"/><path d="M407.26,64.23a28.92,28.92,0,0,0-4.37,1.61,5.79,5.79,0,0,0-3,3.37,1.68,1.68,0,0,0,.3,1.7,2,2,0,0,0,1.75.23,61.58,61.58,0,0,0,10.24-2.72,7.53,7.53,0,0,0,2.47-1.27,2.81,2.81,0,0,0,1.07-2.45C415,59.88,409.55,63.45,407.26,64.23Z" transform="translate(-7.15 -25.05)" fill="url(#linear-gradient-15)"/><path d="M408.27,68.93a29,29,0,0,0-4.38,1.61,5.83,5.83,0,0,0-3,3.37,1.7,1.7,0,0,0,.29,1.71,2.11,2.11,0,0,0,1.75.23,62.6,62.6,0,0,0,10.24-2.73,7.6,7.6,0,0,0,2.47-1.26,2.85,2.85,0,0,0,1.08-2.46C416,64.59,410.56,68.15,408.27,68.93Z" transform="translate(-7.15 -25.05)" fill="url(#linear-gradient-16)"/><path d="M409.34,73.62A29.32,29.32,0,0,0,405,75.23a5.83,5.83,0,0,0-3,3.37,1.7,1.7,0,0,0,.29,1.71,2.11,2.11,0,0,0,1.75.23,62.6,62.6,0,0,0,10.24-2.73,7.6,7.6,0,0,0,2.47-1.26,2.85,2.85,0,0,0,1.08-2.46C417.07,69.27,411.64,72.84,409.34,73.62Z" transform="translate(-7.15 -25.05)" fill="url(#linear-gradient-17)"/><path d="M380.13,66.63c4.59-6.9,13.09-10.2,21.31-11.23,1.39-.18,3.22,0,3.62,1.31a2.29,2.29,0,0,1-.21,1.6c-1.4,2.95-5.77,3.52-7.16,6.47a8.87,8.87,0,0,0-.6,3c-.74,8.81-3.35,18-9.91,23.92A9,9,0,0,1,383.43,94a11,11,0,0,1-3.67.1c-1.75-.16-3.52-.32-5.26-.59s-2.32-.43-2-2.21c.53-2.78,1.76-5.53,2.35-8.34C376,77.35,376.9,71.48,380.13,66.63Z" transform="translate(-7.15 -25.05)" fill="url(#linear-gradient-18)"/><path d="M366.85,96.58a1.34,1.34,0,0,0,.1.8,1.36,1.36,0,0,0,.73.49l14.4,5.56a3.41,3.41,0,0,0,1.87.33,3,3,0,0,0,1.47-1,14.48,14.48,0,0,0,3.8-8.79,1.17,1.17,0,0,0-.2-.9,1.27,1.27,0,0,0-.81-.29c-5.33-.65-10.26-3.67-15.41-5.1C366.64,86,367.24,91.62,366.85,96.58Z" transform="translate(-7.15 -25.05)" fill="#fff"/><path d="M310.19,330.08H195c0-2.65,3.37-15.82,5.95-17.71s8.27-.72,11.47-.72q15.12,0,30.18-.44c10.09-.36,20.14-.87,30.19-1.6,2.83-.18,28.19-3.81,28.81-2.54C304.35,312.59,310.15,327.57,310.19,330.08Z" transform="translate(-7.15 -25.05)" fill="#606161"/><path d="M129.38,221.6l40.86-2.25c1.7-.09,3.62-.29,4.68-1.61s.87-3.18.65-4.85a130.79,130.79,0,0,1-.43-29.2c.34-3.53.89-7.19,2.94-10.08s6-4.69,9.24-3.18a5.81,5.81,0,0,0,1.74.71c2,.22,2.9-2.87,1.62-4.42s-3.52-1.83-5.52-2c-10.79-.81-21.64-.37-32.41-1.21-6.19-.48-12.51-2.47-18.28.73C116.84,174.05,125.73,206.59,129.38,221.6Z" transform="translate(-7.15 -25.05)" fill="#68c5fd"/><path d="M153.58,163.81l-5.79-.69s7.15,21.46,15.32,34.06,19.07,33.37,19.41,38.48,13.28,56.87,8.52,71.85-10.22,22.65-10.22,22.65h60.61L238,223.74l-80.94-60" transform="translate(-7.15 -25.05)" opacity="0.26" fill="url(#linear-gradient-19)"/><path d="M132.12,165.68s-8.34,5.28,2,43.42c0,0,4-.13,3.91,4.47l26.82-2s-1.53-3.7,3.45-4.72c0,0-7.28-27.33-5.75-32.44a13.72,13.72,0,0,0-1-9.7s-13.11-1.54-15.32-1.71S138.42,160.57,132.12,165.68Z" transform="translate(-7.15 -25.05)" fill="url(#linear-gradient-20)"/><path d="M171.77,81.71c5.34-2.61,11.59-2,17.49-2.71a41.35,41.35,0,0,0,17.6-6.23,77.06,77.06,0,0,0,3.59,27.1c-5.47-.22-11.31-.35-16,2.5-4.15,2.53-6.77,7.08-11,9.54-4.71,2.78-10.56,2.46-16,2.06,1.74-3.58-.62-7.72-3-10.9-2.94-3.91-5.22-7.2-2.68-11.66A25.36,25.36,0,0,1,171.77,81.71Z" transform="translate(-7.15 -25.05)" fill="#68c5fd"/><path d="M173.22,82.38c4.72-2.31,10.26-1.81,15.48-2.39a36.56,36.56,0,0,0,15.58-5.52,68,68,0,0,0,3.18,24c-4.85-.2-10-.31-14.15,2.21-3.67,2.24-6,6.26-9.7,8.44-4.17,2.46-9.35,2.18-14.17,1.82,1.54-3.16-.56-6.83-2.68-9.64-2.6-3.46-4.62-6.37-2.37-10.32A22.44,22.44,0,0,1,173.22,82.38Z" transform="translate(-7.15 -25.05)" fill="url(#linear-gradient-21)"/><path d="M430.48,85.18c-.77-4.87.9-10.48,5.21-12.88,2.56-1.43,5.62-1.54,8.55-1.61l19.85-.51a24.94,24.94,0,0,0,4.73,17.71c3.46,4.62,8.48,8,11.68,12.76A21.87,21.87,0,0,1,478.14,127a71.49,71.49,0,0,0-28,1.68c2-5.43-1.55-11.3-5.48-15.57C437.93,105.77,432.05,95.27,430.48,85.18Z" transform="translate(-7.15 -25.05)" fill="#68c5fd"/><path d="M433.6,87.32c-1-4.55.16-9.92,3.76-12.42,2.14-1.48,4.79-1.75,7.33-2l17.2-1.56A25,25,0,0,0,467,87.78c3.28,4.17,7.84,7,10.9,11.39,5,7.2,4.82,18.12-.49,25a57.22,57.22,0,0,0-24.19,3.1c1.45-5.23-2-10.56-5.68-14.37C441.28,106.31,435.56,96.73,433.6,87.32Z" transform="translate(-7.15 -25.05)" opacity="0.26" fill="url(#linear-gradient-22)"/><path d="M39.87,214.11a2.07,2.07,0,0,0-.84,1.06,2.11,2.11,0,0,0,.61,1.62,189.81,189.81,0,0,0,13.21,15.54,3.07,3.07,0,0,0,1.44,1,3.09,3.09,0,0,0,1.9-.42l8.27-3.83c2.93-1.36,5.94-2.77,8.2-5.09,4.46-4.6,5-11.61,5.3-18-6.21-5.35-12.13-16.08-19.77-11.12C51.62,199.14,46.29,208.87,39.87,214.11Z" transform="translate(-7.15 -25.05)" fill="#68c5fd"/><path d="M420.36,284.2a134.57,134.57,0,0,0,18.33,12.62c2.94-12.63,15.1-20.13,25.45-26.3C445,248.33,424.73,287.78,420.36,284.2Z" transform="translate(-7.15 -25.05)" fill="#68c5fd"/><g opacity="0.24" style="isolation:isolate"><path d="M411.14,240.16v-8.35c-11-.91-17.43-7.43-18.35-16.23h8.07a12,12,0,0,0,10.28,9.81v-22.2c-12.2-3.67-17-8.26-17-16.79,0-9.26,7.15-15.41,17-16.05v-6.24h5.23v6.33c12.2,1.19,16.14,9.08,16.69,14.77h-7.89c-1-3.76-3.21-7.43-8.8-8.44v20c14,4,18.07,9.91,18.07,18.07,0,10.18-6.79,16.15-18.07,17v8.35Zm0-44.95V176.59c-6.61.55-9,4.49-9,8.9S404.26,192.83,411.14,195.21Zm5.23,9.54v20.73c6.33-.64,9.72-3.85,9.72-9.81C426.09,210.81,424,207.41,416.37,204.75Z" transform="translate(-7.15 -25.05)" fill="#68c5fd"/></g><path d="M413.67,239.53v-8.35c-11-.92-17.43-7.43-18.35-16.24h8.07a12,12,0,0,0,10.28,9.82v-22.2c-12.2-3.67-17-8.26-17-16.79,0-9.26,7.15-15.41,17-16.05v-6.24h5.23v6.33c12.2,1.19,16.15,9.08,16.7,14.77h-7.89c-1-3.76-3.21-7.43-8.81-8.44v20c14,4,18.07,9.9,18.07,18.07,0,10.18-6.79,16.14-18.07,17v8.35Zm0-44.95V176c-6.61.55-9,4.49-9,8.89S406.79,192.19,413.67,194.58Zm5.23,9.54v20.73c6.33-.64,9.72-3.85,9.72-9.82C428.62,210.17,426.51,206.78,418.9,204.12Z" transform="translate(-7.15 -25.05)" fill="#fff"/><g opacity="0.24" style="isolation:isolate"><path d="M410.81,114.45v-3c-3.89-.32-6.16-2.62-6.48-5.73h2.85a4.2,4.2,0,0,0,3.63,3.46v-7.84c-4.31-1.29-6-2.91-6-5.93,0-3.27,2.53-5.44,6-5.67v-2.2h1.84v2.23c4.32.43,5.71,3.21,5.9,5.22h-2.78a3.73,3.73,0,0,0-3.12-3v7.06c5,1.43,6.39,3.5,6.39,6.39,0,3.59-2.4,5.7-6.39,6v3Zm0-15.88V92c-2.34.19-3.18,1.58-3.18,3.14S408.38,97.73,410.81,98.57Zm1.84,3.37v7.33c2.24-.23,3.44-1.37,3.44-3.47C416.09,104.08,415.34,102.88,412.65,101.94Z" transform="translate(-7.15 -25.05)" fill="#68c5fd"/></g><path d="M411.7,114.23v-3c-3.89-.33-6.15-2.63-6.48-5.74h2.85A4.23,4.23,0,0,0,411.7,109v-7.84c-4.31-1.3-6-2.92-6-5.93,0-3.27,2.52-5.45,6-5.67V87.36h1.85V89.6c4.31.42,5.7,3.21,5.9,5.22h-2.79a3.7,3.7,0,0,0-3.11-3V98.9c5,1.43,6.38,3.5,6.38,6.38,0,3.6-2.4,5.71-6.38,6v3Zm0-15.88V91.77c-2.33.2-3.17,1.59-3.17,3.14S409.27,97.51,411.7,98.35Zm1.85,3.37V109c2.24-.22,3.43-1.36,3.43-3.46C417,103.86,416.24,102.66,413.55,101.72Z" transform="translate(-7.15 -25.05)" fill="#fff"/><g opacity="0.24" style="isolation:isolate"><path d="M91.73,123.55v-3c-3.89-.32-6.16-2.63-6.48-5.74H88.1a4.21,4.21,0,0,0,3.63,3.47v-7.84c-4.31-1.3-6-2.92-6-5.93,0-3.27,2.53-5.44,6-5.67v-2.2h1.84v2.23c4.31.42,5.71,3.21,5.9,5.22H96.69a3.72,3.72,0,0,0-3.12-3v7.06c5,1.43,6.39,3.5,6.39,6.38,0,3.6-2.4,5.71-6.39,6v3Zm0-15.88v-6.58c-2.34.2-3.18,1.59-3.18,3.15S89.3,106.83,91.73,107.67ZM93.57,111v7.32C95.81,118.14,97,117,97,114.9,97,113.18,96.26,112,93.57,111Z" transform="translate(-7.15 -25.05)" fill="#68c5fd"/></g><path d="M92.62,123.32v-2.94c-3.89-.33-6.15-2.63-6.48-5.74H89a4.23,4.23,0,0,0,3.63,3.47v-7.84c-4.31-1.3-6-2.92-6-5.93,0-3.28,2.52-5.45,6-5.67V96.46h1.85V98.7c4.31.42,5.7,3.21,5.9,5.21H97.58a3.73,3.73,0,0,0-3.11-3V108c5,1.42,6.38,3.5,6.38,6.38,0,3.6-2.4,5.7-6.38,6v2.94Zm0-15.87v-6.58c-2.33.19-3.17,1.59-3.17,3.14S90.19,106.6,92.62,107.45Zm1.85,3.37v7.32c2.24-.23,3.43-1.36,3.43-3.47C97.9,113,97.16,111.76,94.47,110.82Z" transform="translate(-7.15 -25.05)" fill="#fff"/><g opacity="0.24" style="isolation:isolate"><path d="M31.14,264v-4c-5.24-.43-8.29-3.54-8.73-7.73h3.84A5.71,5.71,0,0,0,31.14,257V246.4c-5.81-1.75-8.08-3.93-8.08-8,0-4.41,3.41-7.34,8.08-7.64v-3h2.49v3c5.81.57,7.69,4.32,7.95,7H37.82a5,5,0,0,0-4.19-4v9.52c6.68,1.92,8.6,4.72,8.6,8.6,0,4.85-3.23,7.69-8.6,8.08v4Zm0-21.4v-8.86c-3.14.26-4.28,2.13-4.28,4.23S27.87,241.46,31.14,242.6Zm2.49,4.54V257c3-.31,4.63-1.83,4.63-4.67C38.26,250,37.26,248.41,33.63,247.14Z" transform="translate(-7.15 -25.05)" fill="#68c5fd"/></g><path d="M32.35,263.69v-4c-5.24-.44-8.3-3.54-8.74-7.73h3.85a5.67,5.67,0,0,0,4.89,4.67V246.1c-5.81-1.75-8.08-3.93-8.08-8,0-4.41,3.4-7.34,8.08-7.65v-3h2.49v3c5.8.57,7.68,4.32,7.94,7H39a5,5,0,0,0-4.19-4V243c6.68,1.92,8.6,4.72,8.6,8.6,0,4.85-3.23,7.69-8.6,8.08v4Zm0-21.39v-8.87c-3.15.27-4.28,2.14-4.28,4.24S29.07,241.16,32.35,242.3Zm2.49,4.54v9.87c3-.31,4.62-1.84,4.62-4.67C39.46,249.72,38.46,248.11,34.84,246.84Z" transform="translate(-7.15 -25.05)" fill="#fff"/><g opacity="0.24" style="isolation:isolate"><path d="M158.66,176.61h-2.84c-.3,3.74-2.5,5.92-5.49,6.24v-2.74a4,4,0,0,0,3.32-3.5l-7.53,0c-1.24,4.15-2.79,5.77-5.69,5.78-3.15,0-5.24-2.42-5.47-5.75h-2.12V174.9H135c.39-4.14,3.07-5.49,5-5.68v2.68a3.56,3.56,0,0,0-2.86,3l6.79,0c1.36-4.77,3.35-6.15,6.12-6.15,3.46,0,5.49,2.29,5.78,6.12h2.84Zm-15.26,0h-6.33c.19,2.24,1.54,3.05,3,3.05S142.59,179,143.4,176.65Zm3.23-1.79h7c-.22-2.15-1.31-3.3-3.34-3.3C148.68,171.56,147.53,172.27,146.63,174.86Z" transform="translate(-7.15 -25.05)" fill="#68c5fd"/></g><path d="M158.44,175.75h-2.83c-.3,3.74-2.51,5.92-5.5,6.24v-2.74a4.07,4.07,0,0,0,3.33-3.5l-7.54,0c-1.24,4.15-2.79,5.77-5.69,5.78-3.15,0-5.24-2.42-5.46-5.75h-2.12V174h2.15c.4-4.14,3.07-5.49,5-5.68V171a3.56,3.56,0,0,0-2.86,3l6.79,0c1.36-4.77,3.35-6.15,6.13-6.15,3.45,0,5.48,2.29,5.77,6.12h2.84Zm-15.26,0h-6.33c.2,2.25,1.54,3,3,3S142.37,178.12,143.18,175.79Zm3.23-1.79h7c-.22-2.15-1.31-3.3-3.34-3.3C148.46,170.7,147.31,171.41,146.41,174Z" transform="translate(-7.15 -25.05)" fill="#fff"/><g opacity="0.24" style="isolation:isolate"><path d="M185.47,100.9l-.54-1.84c-2.5.51-4.34-.52-5.11-2.41l1.78-.52a2.77,2.77,0,0,0,2.91,1.51l-1.44-4.91c-2.93,0-4.28-.73-4.84-2.61-.6-2.05.59-3.88,2.72-4.65l-.41-1.38,1.16-.34.41,1.4c2.77-.53,4.16,1,4.65,2.18l-1.75.51a2.42,2.42,0,0,0-2.49-1.29L183.81,91c3.37,0,4.64,1,5.17,2.82.66,2.26-.45,4-2.9,4.93l.54,1.84ZM182.56,91l-1.21-4.11a2,2,0,0,0-1.41,2.54C180.23,90.39,180.88,90.88,182.56,91Zm1.77,1.77,1.34,4.59a2.14,2.14,0,0,0,1.52-2.8C186.87,93.44,186.19,92.83,184.33,92.73Z" transform="translate(-7.15 -25.05)" fill="#68c5fd"/></g><path d="M186,100.6l-.54-1.85c-2.5.51-4.34-.51-5.11-2.4l1.78-.52a2.75,2.75,0,0,0,2.91,1.5l-1.44-4.91c-2.93,0-4.29-.72-4.84-2.61-.6-2,.59-3.87,2.71-4.65l-.4-1.38,1.16-.34.41,1.4c2.77-.52,4.16,1,4.65,2.19l-1.75.51a2.42,2.42,0,0,0-2.49-1.3l1.29,4.43c3.37,0,4.64,1,5.17,2.82.66,2.25-.46,4-2.9,4.92l.54,1.85Zm-2.92-9.94-1.2-4.12a2,2,0,0,0-1.41,2.55C180.75,90.09,181.4,90.58,183.07,90.66Zm1.78,1.77L186.19,97a2.14,2.14,0,0,0,1.52-2.8C187.39,93.14,186.71,92.52,184.85,92.43Z" transform="translate(-7.15 -25.05)" fill="#fff"/><g opacity="0.24" style="isolation:isolate"><path d="M448.41,278.93l-1.12-.81a3,3,0,0,1-4,.87l.79-1.09a2,2,0,0,0,2.33-.41l-3-2.18c-1.69,1.28-2.77,1.47-3.91.64a2.73,2.73,0,0,1-.5-3.85l-.83-.62.51-.7.85.62a2.76,2.76,0,0,1,3.62-.79l-.78,1.06a1.75,1.75,0,0,0-2,.35l2.68,2c1.92-1.49,3.1-1.45,4.2-.65,1.36,1,1.5,2.49.5,4.09l1.12.81Zm-6-4.4-2.5-1.82a1.41,1.41,0,0,0,.31,2.07C440.8,275.22,441.39,275.22,442.38,274.53Zm1.79.23,2.78,2a1.54,1.54,0,0,0-.36-2.27C445.94,274.05,445.27,274,444.17,274.76Z" transform="translate(-7.15 -25.05)" fill="#68c5fd"/></g><path d="M448.57,278.53l-1.12-.81a3,3,0,0,1-4,.87l.79-1.09a2,2,0,0,0,2.32-.41l-3-2.18c-1.68,1.28-2.77,1.47-3.91.63a2.72,2.72,0,0,1-.49-3.85l-.84-.61.51-.7.85.62a2.76,2.76,0,0,1,3.62-.79l-.77,1.06a1.74,1.74,0,0,0-2,.35l2.68,2c1.92-1.49,3.1-1.45,4.2-.65,1.36,1,1.5,2.49.5,4.08l1.12.82Zm-6-4.4-2.5-1.82a1.41,1.41,0,0,0,.32,2.07C441,274.82,441.55,274.82,442.54,274.13Zm1.79.23,2.79,2a1.53,1.53,0,0,0-.37-2.26C446.1,273.65,445.44,273.6,444.33,274.36Z" transform="translate(-7.15 -25.05)" fill="#fff"/><path d="M461.42,233.87c-.6,6.18-6.67,7.69-6.24,13.88,4.95-1.86,10.31-1.61,15.36-.34s9.59,4,14.52,5.64a17.93,17.93,0,0,1,1.58-5.56c.92-1.79,2.07-3.46,2.95-5.27-1.34.25-2.57-.72-3.67-1.52-4.42-3.24-9.91-4.46-15.28-4.86C469.39,235.75,461.2,236.17,461.42,233.87Z" transform="translate(-7.15 -25.05)" fill="#68c5fd"/><g opacity="0.24" style="isolation:isolate"><path d="M470.2,245.67l.39-.91a2.14,2.14,0,0,1-1.25-2.61l.88.37a1.4,1.4,0,0,0,.66,1.54l1-2.41c-1.16-1-1.47-1.68-1.08-2.61a1.94,1.94,0,0,1,2.59-1l.29-.68.57.24-.3.69a2,2,0,0,1,1.14,2.37l-.86-.36a1.25,1.25,0,0,0-.57-1.32l-.92,2.17c1.34,1.09,1.51,1.91,1.13,2.8a2,2,0,0,1-2.74,1l-.39.91Zm2.07-4.89.86-2a1,1,0,0,0-1.39.55C471.54,239.8,471.64,240.21,472.27,240.78Zm.13,1.28-.95,2.26a1.1,1.1,0,0,0,1.51-.62C473.18,243.17,473.11,242.7,472.4,242.06Z" transform="translate(-7.15 -25.05)" fill="#68c5fd"/></g><path d="M470.51,245.72l.38-.91a2.16,2.16,0,0,1-1.25-2.61l.88.37a1.42,1.42,0,0,0,.67,1.54l1-2.41c-1.16-1-1.46-1.68-1.07-2.61a1.93,1.93,0,0,1,2.58-1l.29-.68.57.24-.29.69a2,2,0,0,1,1.13,2.37l-.85-.36a1.24,1.24,0,0,0-.57-1.32l-.92,2.17c1.34,1.09,1.5,1.91,1.13,2.8a2,2,0,0,1-2.75,1l-.38.91Zm2.07-4.89.86-2a1,1,0,0,0-1.39.56C471.84,239.85,471.94,240.25,472.58,240.83Zm.13,1.28-1,2.25a1.09,1.09,0,0,0,1.51-.62C473.49,243.21,473.41,242.75,472.71,242.11Z" transform="translate(-7.15 -25.05)" fill="#fff"/><g opacity="0.24" style="isolation:isolate"><path d="M447.64,101l2.19-.68c-.66-3,.53-5.18,2.77-6.14l.65,2.12a3.3,3.3,0,0,0-1.74,3.5L457.34,98c0-3.5.79-5.13,3-5.82,2.43-.75,4.63.62,5.59,3.15l1.64-.51.43,1.37-1.66.52c.67,3.3-1.08,5-2.52,5.58l-.65-2.07a2.88,2.88,0,0,0,1.5-3l-5.25,1.63c.09,4-1.13,5.55-3.27,6.22-2.67.83-4.79-.47-5.93-3.37l-2.19.68Zm11.8-3.66,4.89-1.51a2.35,2.35,0,0,0-3.07-1.64C460.08,94.56,459.5,95.34,459.44,97.34Zm-2.08,2.15-5.45,1.69c.69,1.61,1.81,2.24,3.37,1.75C456.56,102.54,457.28,101.71,457.36,99.49Z" transform="translate(-7.15 -25.05)" fill="#68c5fd"/></g><path d="M448,101.61l2.19-.68c-.66-3,.53-5.18,2.77-6.13l.66,2.12a3.26,3.26,0,0,0-1.74,3.49l5.82-1.81c0-3.5.79-5.12,3-5.82,2.43-.75,4.63.63,5.6,3.15l1.63-.51.43,1.38-1.66.51c.68,3.3-1.07,5-2.52,5.59l-.64-2.07a2.91,2.91,0,0,0,1.5-3l-5.25,1.62c.08,4-1.13,5.56-3.28,6.22-2.67.83-4.79-.47-5.92-3.36l-2.2.68ZM459.81,98l4.89-1.51a2.35,2.35,0,0,0-3.07-1.64C460.45,95.17,459.88,96,459.81,98Zm-2.08,2.15-5.44,1.69c.68,1.61,1.8,2.24,3.37,1.76C456.93,103.15,457.65,102.32,457.73,100.1Z" transform="translate(-7.15 -25.05)" fill="#fff"/><g opacity="0.24" style="isolation:isolate"><path d="M63.81,288.55l.27-1.31a2.91,2.91,0,0,1-2.35-3.15l1.27.26a1.92,1.92,0,0,0,1.29,1.88l.73-3.49c-1.8-1-2.4-1.85-2.12-3.2a2.64,2.64,0,0,1,3.19-2l.2-1,.83.17-.21,1a2.67,2.67,0,0,1,2.14,2.87l-1.24-.26a1.7,1.7,0,0,0-1.11-1.62l-.65,3.15c2.07,1.09,2.52,2.15,2.25,3.43-.33,1.6-1.59,2.32-3.4,2.08l-.27,1.31Zm1.47-7.07.61-2.93a1.39,1.39,0,0,0-1.71,1.11C64,280.37,64.27,280.88,65.28,281.48Zm.51,1.67-.68,3.26A1.48,1.48,0,0,0,67,285.19C67.12,284.42,66.9,283.82,65.79,283.15Z" transform="translate(-7.15 -25.05)" fill="#68c5fd"/></g><path d="M64.23,288.54l.27-1.32a2.91,2.91,0,0,1-2.35-3.15l1.27.26a1.9,1.9,0,0,0,1.29,1.88l.73-3.49c-1.8-1-2.4-1.85-2.12-3.19a2.63,2.63,0,0,1,3.19-2l.2-1,.83.17-.21,1a2.67,2.67,0,0,1,2.14,2.87l-1.24-.26a1.69,1.69,0,0,0-1.11-1.61l-.65,3.14c2.07,1.1,2.52,2.15,2.25,3.44-.33,1.6-1.6,2.31-3.4,2.07l-.27,1.32Zm1.47-7.07.61-2.93a1.37,1.37,0,0,0-1.71,1.1C64.45,280.35,64.69,280.87,65.7,281.47Zm.51,1.67-.68,3.26a1.49,1.49,0,0,0,1.85-1.23C67.54,284.41,67.32,283.8,66.21,283.14Z" transform="translate(-7.15 -25.05)" fill="#68c5fd"/><g opacity="0.24" style="isolation:isolate"><path d="M96.05,193.91v-5.54c-7.31-.61-11.58-4.94-12.19-10.79h5.36a8,8,0,0,0,6.83,6.52V169.36c-8.11-2.44-11.28-5.49-11.28-11.15,0-6.16,4.76-10.24,11.28-10.67V143.4h3.47v4.2c8.11.79,10.73,6,11.09,9.81h-5.24a7,7,0,0,0-5.85-5.6v13.28c9.33,2.68,12,6.58,12,12,0,6.77-4.51,10.73-12,11.28v5.54Zm0-29.85V151.69c-4.39.36-6,3-6,5.91S91.48,162.47,96.05,164.06Zm3.47,6.33v13.77c4.21-.42,6.46-2.56,6.46-6.52C106,174.41,104.58,172.16,99.52,170.39Z" transform="translate(-7.15 -25.05)" fill="#68c5fd"/></g><path d="M97.73,193.49V188c-7.31-.61-11.58-4.94-12.19-10.79h5.37a7.93,7.93,0,0,0,6.82,6.52V168.94c-8.1-2.44-11.27-5.49-11.27-11.15,0-6.16,4.75-10.24,11.27-10.67V143h3.47v4.2c8.11.79,10.73,6,11.09,9.81h-5.24a7,7,0,0,0-5.85-5.6v13.28c9.33,2.68,12,6.58,12,12,0,6.77-4.51,10.73-12,11.28v5.54Zm0-29.85V151.27c-4.39.36-6,3-6,5.91S93.16,162.05,97.73,163.64ZM101.2,170v13.77c4.21-.42,6.46-2.56,6.46-6.52C107.66,174,106.26,171.74,101.2,170Z" transform="translate(-7.15 -25.05)" fill="#fff"/><path d="M382.25,111.54C359.14,148.66,310.19,220.9,305,264.33c-1.27,10.81-1.45,21.74-1.85,32.62-.15,2.87-.11,7.69-1.6,10.12-2.54,4.1-8.09,3.38-12.84,3.85-16.91,1.71-34.84,1.89-52,1.74-12.63-.07-24.82-.33-35.85-.29-.69-12.73-1.92-27-2.61-39.73-.62-11.39-1.27-22.93-4.54-33.85-2.79-9.18-7.36-17.71-11.93-26.13q-26.62-48.6-55.52-95.89c-1.27-2.07-7.4-9.76-6.71-12.09a5.21,5.21,0,0,1,.29-.65,9.3,9.3,0,0,1,2.25-2.68A42.09,42.09,0,0,1,132,95a5.07,5.07,0,0,1,2.51-.61c1.23.14,7,6.35,7.87,7.25L192,152.07c10.71,10.89,22.86,14.33,37.52,18.72,6.61,2,13.57,2.43,20.47,2.51,16.18.14,36,.25,48.11-11.54,14.4-14.08,55.29-52.25,68.65-67.42l14.29,8.42a6.56,6.56,0,0,1,2.54,2.11C384.79,106.93,383.52,109.51,382.25,111.54Z" transform="translate(-7.15 -25.05)" fill="#68c5fd"/><path d="M246.75,188.33A12.72,12.72,0,0,0,260.33,190a9.09,9.09,0,0,0,4.3-3.61,13.64,13.64,0,0,0,1.36-5.5l.66-6.36a47.8,47.8,0,0,0,.32-10.39c-.39-3.37-1.63-6.6-4-8.43-3.11-2.42-7.65-1.92-11.45.16C239.26,162.64,237.33,180.19,246.75,188.33Z" transform="translate(-7.15 -25.05)" fill="url(#linear-gradient-23)"/><path d="M265.27,162.36s-9.19,23-22.73,18.39c0,0-3.57-.77-.25-15.33S265.27,162.36,265.27,162.36Z" transform="translate(-7.15 -25.05)" opacity="0.26" fill="url(#linear-gradient-24)"/><path d="M226.89,144.47c1.05,9.06,5.14,18.42,13.09,22.69,7.37,4,16.65,2.71,24.07-1.21a22.37,22.37,0,0,0,7.95-6.52,27.86,27.86,0,0,0,3.82-9c1.49-5.41,2.57-11,2.09-16.6a29.91,29.91,0,0,0-41.23-25.18c-6.29,2.58-9.13,6.51-9.45,13.17C226.87,129.36,226,136.93,226.89,144.47Z" transform="translate(-7.15 -25.05)" fill="url(#linear-gradient-25)"/><path d="M223.16,123c0-2.84.46-5.73-.26-8.47-.68-2.55-2.36-4.73-3.26-7.21a12.83,12.83,0,0,1,2.58-12.83,15.14,15.14,0,0,1,6.83-4.09,19.26,19.26,0,0,1,10.19-.25c2.11.53,4.11,1.41,6.23,1.87,3,.64,6.15.4,9.23.38,4.89,0,9.89.52,14.32,2.59s8.25,5.82,9.51,10.55a13.26,13.26,0,0,0,1.21,3.78,24.15,24.15,0,0,0,2.6,2.76c2,2.27,2.31,5.51,2.54,8.51a17.47,17.47,0,0,1-.42,7.1c-.74,2.14-2.27,3.89-3.44,5.82a38.55,38.55,0,0,0-3.45,8.46c-.57-1.12-.38-2.45-.51-3.7s-.89-2.67-2.15-2.67a2.6,2.6,0,0,0-2.14,1.77,12.74,12.74,0,0,1-1.17,2.7,1,1,0,0,1-1,.5c-.34-.1-.5-.48-.61-.81-.89-3,.13-6.22.27-9.36a16.72,16.72,0,0,0-5.08-12.66,21.87,21.87,0,0,0-11.95-5.4,57.44,57.44,0,0,0-13.3,0c-2.59.22-5.3.52-7.44,2-2.41,1.65-3.71,4.5-4.41,7.33-.55,2.26-.38,6.86-2,8.47C223.77,128.81,223.2,125.33,223.16,123Z" transform="translate(-7.15 -25.05)" fill="#e08142"/><path d="M45.46,212.5s.25,4.77-1.36,5.45L52,227.66s3.32-2.56,5.45-1.28c0,0,6.64-9.11,11.58-13.71s8.17-7.23,8.17-7.23-6.21-7.5-8.68-9S64.36,194,64.36,194,58.91,194.62,45.46,212.5Z" transform="translate(-7.15 -25.05)" fill="#fff"/><path d="M60.87,228.42S73.13,209.69,75,210.71s-.77,9.62-1.62,11.16-7.58,6.55-7.58,6.55l-6.72,3Z" transform="translate(-7.15 -25.05)" fill="url(#linear-gradient-26)"/><path d="M226.79,312.62l-25.85-.25c-.69-12.73-1.92-27-2.61-39.73-.62-11.39-1.27-22.93-4.54-33.85-2.79-9.18-7.36-17.71-11.93-26.13q-26.62-48.6-55.52-95.89c-1.27-2.07-7.4-9.76-6.71-12.09a5.21,5.21,0,0,1,.29-.65L126,99.1l3.77,8.16s55.15,78.34,68.76,88.57S221.69,230.55,221,236c-.62,4.87,13.09,61.62,16,74.24C237.37,311.76,226.79,312.62,226.79,312.62Z" transform="translate(-7.15 -25.05)" fill="url(#linear-gradient-27)"/><g opacity="0.24" style="isolation:isolate"><path d="M69.36,208.64l-1-1.21a3.43,3.43,0,0,1-4.62-.16l1.17-1a2.25,2.25,0,0,0,2.67.2l-2.66-3.23c-2.21.94-3.46.84-4.48-.39a3.1,3.1,0,0,1,.53-4.37l-.74-.91L61,197l.76.92a3.13,3.13,0,0,1,4.2.14L64.8,199a2,2,0,0,0-2.3-.17l2.41,2.9c2.52-1.1,3.81-.73,4.79.46,1.22,1.47,1,3.15-.59,4.63l1,1.21ZM64,202.12l-2.24-2.71a1.61,1.61,0,0,0-.23,2.37C62,202.44,62.68,202.6,64,202.12Zm1.9.75,2.49,3a1.74,1.74,0,0,0,.24-2.59C68,202.58,67.29,202.34,65.86,202.87Z" transform="translate(-7.15 -25.05)" fill="#68c5fd"/></g><path d="M69.65,208.24l-1-1.21a3.43,3.43,0,0,1-4.62-.15l1.18-1a2.25,2.25,0,0,0,2.67.19l-2.67-3.22c-2.21.93-3.45.84-4.48-.4a3.09,3.09,0,0,1,.54-4.37l-.75-.9.76-.63.76.92a3.12,3.12,0,0,1,4.19.13l-1.14,1a2,2,0,0,0-2.29-.16l2.4,2.9c2.52-1.1,3.81-.74,4.79.45,1.22,1.48,1,3.16-.58,4.63l1,1.22Zm-5.4-6.52L62,199a1.61,1.61,0,0,0-.23,2.37C62.32,202,63,202.2,64.25,201.72Zm1.91.76,2.49,3a1.76,1.76,0,0,0,.23-2.6C68.29,202.19,67.58,202,66.16,202.48Z" transform="translate(-7.15 -25.05)" fill="#68c5fd"/></svg>